<svg width="105" height="105" viewBox="0 -27 105 105" fill="none" xmlns="http://www.w3.org/2000/svg">
<path d="M4.42676 0.422738C8.19321 -0.818303 10.9604 0.931677 12.9199 2.34266C13.6388 2.86029 14.3834 3.62325 15.0449 4.3661C15.7392 5.14566 16.4719 6.053 17.1768 6.96766C18.5871 8.79781 19.9584 10.7564 20.7969 12.0116L20.833 12.0663L20.8662 12.121V12.122L20.8672 12.1229C20.8676 12.1236 20.8685 12.1247 20.8691 12.1259C20.8707 12.1285 20.873 12.1326 20.876 12.1376C20.8822 12.1479 20.8913 12.1635 20.9033 12.1835C20.9275 12.2237 20.9631 12.2833 21.0098 12.3612C21.1035 12.5177 21.2415 12.7484 21.4189 13.0458C21.7741 13.6408 22.2879 14.5036 22.9229 15.5761C24.1926 17.7207 25.9485 20.7061 27.8936 24.0682C30.7297 28.9708 33.8136 34.347 37.1123 38.5145C38.7559 40.591 40.3684 42.255 41.9268 43.3827C43.484 44.5096 44.8244 44.9852 45.9883 44.9852C46.7852 44.9852 47.7289 44.6513 48.8857 43.6854C50.0582 42.7063 51.2874 41.2075 52.5732 39.2157C55.1545 35.2172 57.6037 29.8185 60.165 24.1561C62.6735 18.6106 65.2953 12.8009 68.1406 8.39344C69.5678 6.18268 71.1406 4.17854 72.9043 2.70594C74.6838 1.22018 76.8112 0.15223 79.2627 0.15223C82.4391 0.152379 85.197 1.90238 87.4541 4.12391C89.7431 6.37684 91.8475 9.4342 93.7529 12.7821C97.5714 19.4916 100.888 27.9045 103.411 34.8544L98.335 36.6981C95.8265 29.7898 92.638 21.7407 89.0596 15.453C87.2665 12.3025 85.449 9.72741 83.666 7.97254C81.8514 6.18656 80.3866 5.55277 79.2627 5.55262C78.4658 5.55262 77.522 5.88558 76.3652 6.85145C75.1925 7.8306 73.9629 9.3299 72.6768 11.3222C70.0954 15.3207 67.6463 20.7193 65.085 26.3817C62.5765 31.9271 59.9557 37.737 57.1104 42.1444C55.6832 44.355 54.1102 46.3584 52.3467 47.8309C50.5671 49.3168 48.4399 50.3847 45.9883 50.3847C43.3108 50.3846 40.8778 49.2897 38.7607 47.7577C36.6447 46.2264 34.6813 44.1423 32.8789 41.8651C29.2855 37.3253 25.9946 31.5689 23.2197 26.7723C21.2858 23.4295 19.5393 20.4602 18.2764 18.327C17.645 17.2606 17.1344 16.4035 16.7822 15.8134C16.6062 15.5184 16.4693 15.2899 16.377 15.1356C16.3309 15.0587 16.296 15 16.2725 14.9608C15.483 13.7816 14.2015 11.9533 12.8994 10.2636C12.2386 9.40601 11.5914 8.60772 11.0127 7.95789C10.4014 7.2715 9.97977 6.8804 9.76465 6.72547C8.86233 6.07574 8.23834 5.70481 7.68262 5.5243C7.22348 5.37517 6.76123 5.33909 6.11621 5.55164L4.42676 0.422738Z" fill="#BF4DF3"/>
<path d="M4.42676 0.422738C8.19321 -0.818303 10.9604 0.931677 12.9199 2.34266C13.6388 2.86029 14.3834 3.62325 15.0449 4.3661C15.7392 5.14566 16.4719 6.053 17.1768 6.96766C18.5871 8.79781 19.9584 10.7564 20.7969 12.0116L20.833 12.0663L20.8662 12.121V12.122L20.8672 12.1229C20.8676 12.1236 20.8685 12.1247 20.8691 12.1259C20.8707 12.1285 20.873 12.1326 20.876 12.1376C20.8822 12.1479 20.8913 12.1635 20.9033 12.1835C20.9275 12.2237 20.9631 12.2833 21.0098 12.3612C21.1035 12.5177 21.2415 12.7484 21.4189 13.0458C21.7741 13.6408 22.2879 14.5036 22.9229 15.5761C24.1926 17.7207 25.9485 20.7061 27.8936 24.0682C30.7297 28.9708 33.8136 34.347 37.1123 38.5145C38.7559 40.591 40.3684 42.255 41.9268 43.3827C43.484 44.5096 44.8244 44.9852 45.9883 44.9852C46.7852 44.9852 47.7289 44.6513 48.8857 43.6854C50.0582 42.7063 51.2874 41.2075 52.5732 39.2157C55.1545 35.2172 57.6037 29.8185 60.165 24.1561C62.6735 18.6106 65.2953 12.8009 68.1406 8.39344C69.5678 6.18268 71.1406 4.17854 72.9043 2.70594C74.6838 1.22018 76.8112 0.15223 79.2627 0.15223C82.4391 0.152379 85.197 1.90238 87.4541 4.12391C89.7431 6.37684 91.8475 9.4342 93.7529 12.7821C97.5714 19.4916 100.888 27.9045 103.411 34.8544L98.335 36.6981C95.8265 29.7898 92.638 21.7407 89.0596 15.453C87.2665 12.3025 85.449 9.72741 83.666 7.97254C81.8514 6.18656 80.3866 5.55277 79.2627 5.55262C78.4658 5.55262 77.522 5.88558 76.3652 6.85145C75.1925 7.8306 73.9629 9.3299 72.6768 11.3222C70.0954 15.3207 67.6463 20.7193 65.085 26.3817C62.5765 31.9271 59.9557 37.737 57.1104 42.1444C55.6832 44.355 54.1102 46.3584 52.3467 47.8309C50.5671 49.3168 48.4399 50.3847 45.9883 50.3847C43.3108 50.3846 40.8778 49.2897 38.7607 47.7577C36.6447 46.2264 34.6813 44.1423 32.8789 41.8651C29.2855 37.3253 25.9946 31.5689 23.2197 26.7723C21.2858 23.4295 19.5393 20.4602 18.2764 18.327C17.645 17.2606 17.1344 16.4035 16.7822 15.8134C16.6062 15.5184 16.4693 15.2899 16.377 15.1356C16.3309 15.0587 16.296 15 16.2725 14.9608C15.483 13.7816 14.2015 11.9533 12.8994 10.2636C12.2386 9.40601 11.5914 8.60772 11.0127 7.95789C10.4014 7.2715 9.97977 6.8804 9.76465 6.72547C8.86233 6.07574 8.23834 5.70481 7.68262 5.5243C7.22348 5.37517 6.76123 5.33909 6.11621 5.55164L4.42676 0.422738Z" fill="url(#paint0_linear_3973_14256)"/>
<path d="M4.42676 0.422738C8.19321 -0.818303 10.9604 0.931677 12.9199 2.34266C13.6388 2.86029 14.3834 3.62325 15.0449 4.3661C15.7392 5.14566 16.4719 6.053 17.1768 6.96766C18.5871 8.79781 19.9584 10.7564 20.7969 12.0116L20.833 12.0663L20.8662 12.121V12.122L20.8672 12.1229C20.8676 12.1236 20.8685 12.1247 20.8691 12.1259C20.8707 12.1285 20.873 12.1326 20.876 12.1376C20.8822 12.1479 20.8913 12.1635 20.9033 12.1835C20.9275 12.2237 20.9631 12.2833 21.0098 12.3612C21.1035 12.5177 21.2415 12.7484 21.4189 13.0458C21.7741 13.6408 22.2879 14.5036 22.9229 15.5761C24.1926 17.7207 25.9485 20.7061 27.8936 24.0682C30.7297 28.9708 33.8136 34.347 37.1123 38.5145C38.7559 40.591 40.3684 42.255 41.9268 43.3827C43.484 44.5096 44.8244 44.9852 45.9883 44.9852C46.7852 44.9852 47.7289 44.6513 48.8857 43.6854C50.0582 42.7063 51.2874 41.2075 52.5732 39.2157C55.1545 35.2172 57.6037 29.8185 60.165 24.1561C62.6735 18.6106 65.2953 12.8009 68.1406 8.39344C69.5678 6.18268 71.1406 4.17854 72.9043 2.70594C74.6838 1.22018 76.8112 0.15223 79.2627 0.15223C82.4391 0.152379 85.197 1.90238 87.4541 4.12391C89.7431 6.37684 91.8475 9.4342 93.7529 12.7821C97.5714 19.4916 100.888 27.9045 103.411 34.8544L98.335 36.6981C95.8265 29.7898 92.638 21.7407 89.0596 15.453C87.2665 12.3025 85.449 9.72741 83.666 7.97254C81.8514 6.18656 80.3866 5.55277 79.2627 5.55262C78.4658 5.55262 77.522 5.88558 76.3652 6.85145C75.1925 7.8306 73.9629 9.3299 72.6768 11.3222C70.0954 15.3207 67.6463 20.7193 65.085 26.3817C62.5765 31.9271 59.9557 37.737 57.1104 42.1444C55.6832 44.355 54.1102 46.3584 52.3467 47.8309C50.5671 49.3168 48.4399 50.3847 45.9883 50.3847C43.3108 50.3846 40.8778 49.2897 38.7607 47.7577C36.6447 46.2264 34.6813 44.1423 32.8789 41.8651C29.2855 37.3253 25.9946 31.5689 23.2197 26.7723C21.2858 23.4295 19.5393 20.4602 18.2764 18.327C17.645 17.2606 17.1344 16.4035 16.7822 15.8134C16.6062 15.5184 16.4693 15.2899 16.377 15.1356C16.3309 15.0587 16.296 15 16.2725 14.9608C15.483 13.7816 14.2015 11.9533 12.8994 10.2636C12.2386 9.40601 11.5914 8.60772 11.0127 7.95789C10.4014 7.2715 9.97977 6.8804 9.76465 6.72547C8.86233 6.07574 8.23834 5.70481 7.68262 5.5243C7.22348 5.37517 6.76123 5.33909 6.11621 5.55164L4.42676 0.422738Z" fill="url(#paint1_radial_3973_14256)"/>
<path d="M64.3165 0.154419C66.7678 0.15451 68.8946 1.2225 70.674 2.70813C72.4376 4.18074 74.0114 6.18486 75.4386 8.39563C78.2839 12.8031 80.9048 18.6129 83.4132 24.1583C85.9746 29.8208 88.4237 35.2194 91.005 39.2179C92.2911 41.21 93.5209 42.7095 94.6935 43.6886C95.85 44.6541 96.7932 44.9874 97.59 44.9874C98.2375 44.9874 98.7824 44.7407 99.1027 44.0646C99.5176 43.1884 99.8687 40.9812 98.2267 36.3615L103.315 34.5529C105.131 39.6623 105.312 43.5705 103.983 46.3771C102.558 49.3834 99.7827 50.3868 97.59 50.3868C95.1385 50.3868 93.012 49.3189 91.2326 47.8331C89.4689 46.3605 87.8951 44.3574 86.4679 42.1466C83.6226 37.7392 81.0018 31.9294 78.4933 26.3839C75.9319 20.7214 73.4828 15.3229 70.9015 11.3243C69.6154 9.33208 68.3857 7.8328 67.213 6.85364C66.0565 5.88799 65.1134 5.5549 64.3165 5.55481C63.5196 5.55481 62.5759 5.88775 61.4191 6.85364C60.2464 7.8328 59.0167 9.3321 57.7306 11.3243C55.1493 15.3229 52.7002 20.7215 50.1388 26.3839C47.6304 31.9293 45.0095 37.7392 42.1642 42.1466C40.7371 44.3572 39.1641 46.3606 37.4005 47.8331C35.621 49.319 33.4938 50.3868 31.0421 50.3868C26.7153 50.3868 22.7886 47.7784 19.5392 44.59C16.2185 41.3316 13.1694 37.0392 10.5802 32.7706C7.97851 28.4813 5.77546 24.1058 4.16908 20.6046C2.59635 17.1768 1.5103 14.402 1.23061 13.3595C0.875224 12.0349 0.0122051 9.43122 0.000137042 7.09875C-0.00628358 5.85627 0.21109 4.41112 1.03627 3.09387C1.89648 1.72073 3.2362 0.775125 4.9308 0.266724L6.48256 5.4386C5.84229 5.63067 5.67404 5.86273 5.61244 5.96106C5.51586 6.1154 5.3973 6.43589 5.40053 7.07043C5.40789 8.49346 5.94564 10.0935 6.44643 11.9601C6.59482 12.5132 7.49962 14.9141 9.07729 18.3527C10.6215 21.7183 12.7295 25.9012 15.1974 29.9698C17.6778 34.0591 20.4571 37.9249 23.3214 40.7355C26.257 43.6159 28.8719 44.9874 31.0421 44.9874C31.8391 44.9874 32.7828 44.6544 33.9396 43.6886C35.1122 42.7095 36.341 41.2099 37.6271 39.2179C40.2084 35.2194 42.6575 29.8207 45.2189 24.1583C47.7274 18.6128 50.3491 12.8031 53.1945 8.39563C54.6217 6.18486 56.1945 4.18074 57.9581 2.70813C59.7377 1.22235 61.865 0.154419 64.3165 0.154419Z" fill="#2549FF"/>
<path d="M64.3165 0.154419C66.7678 0.15451 68.8946 1.2225 70.674 2.70813C72.4376 4.18074 74.0114 6.18486 75.4386 8.39563C78.2839 12.8031 80.9048 18.6129 83.4132 24.1583C85.9746 29.8208 88.4237 35.2194 91.005 39.2179C92.2911 41.21 93.5209 42.7095 94.6935 43.6886C95.85 44.6541 96.7932 44.9874 97.59 44.9874C98.2375 44.9874 98.7824 44.7407 99.1027 44.0646C99.5176 43.1884 99.8687 40.9812 98.2267 36.3615L103.315 34.5529C105.131 39.6623 105.312 43.5705 103.983 46.3771C102.558 49.3834 99.7827 50.3868 97.59 50.3868C95.1385 50.3868 93.012 49.3189 91.2326 47.8331C89.4689 46.3605 87.8951 44.3574 86.4679 42.1466C83.6226 37.7392 81.0018 31.9294 78.4933 26.3839C75.9319 20.7214 73.4828 15.3229 70.9015 11.3243C69.6154 9.33208 68.3857 7.8328 67.213 6.85364C66.0565 5.88799 65.1134 5.5549 64.3165 5.55481C63.5196 5.55481 62.5759 5.88775 61.4191 6.85364C60.2464 7.8328 59.0167 9.3321 57.7306 11.3243C55.1493 15.3229 52.7002 20.7215 50.1388 26.3839C47.6304 31.9293 45.0095 37.7392 42.1642 42.1466C40.7371 44.3572 39.1641 46.3606 37.4005 47.8331C35.621 49.319 33.4938 50.3868 31.0421 50.3868C26.7153 50.3868 22.7886 47.7784 19.5392 44.59C16.2185 41.3316 13.1694 37.0392 10.5802 32.7706C7.97851 28.4813 5.77546 24.1058 4.16908 20.6046C2.59635 17.1768 1.5103 14.402 1.23061 13.3595C0.875224 12.0349 0.0122051 9.43122 0.000137042 7.09875C-0.00628358 5.85627 0.21109 4.41112 1.03627 3.09387C1.89648 1.72073 3.2362 0.775125 4.9308 0.266724L6.48256 5.4386C5.84229 5.63067 5.67404 5.86273 5.61244 5.96106C5.51586 6.1154 5.3973 6.43589 5.40053 7.07043C5.40789 8.49346 5.94564 10.0935 6.44643 11.9601C6.59482 12.5132 7.49962 14.9141 9.07729 18.3527C10.6215 21.7183 12.7295 25.9012 15.1974 29.9698C17.6778 34.0591 20.4571 37.9249 23.3214 40.7355C26.257 43.6159 28.8719 44.9874 31.0421 44.9874C31.8391 44.9874 32.7828 44.6544 33.9396 43.6886C35.1122 42.7095 36.341 41.2099 37.6271 39.2179C40.2084 35.2194 42.6575 29.8207 45.2189 24.1583C47.7274 18.6128 50.3491 12.8031 53.1945 8.39563C54.6217 6.18486 56.1945 4.18074 57.9581 2.70813C59.7377 1.22235 61.865 0.154419 64.3165 0.154419Z" fill="url(#paint2_radial_3973_14256)"/>
<path d="M64.3165 0.154419C66.7678 0.15451 68.8946 1.2225 70.674 2.70813C72.4376 4.18074 74.0114 6.18486 75.4386 8.39563C78.2839 12.8031 80.9048 18.6129 83.4132 24.1583C85.9746 29.8208 88.4237 35.2194 91.005 39.2179C92.2911 41.21 93.5209 42.7095 94.6935 43.6886C95.85 44.6541 96.7932 44.9874 97.59 44.9874C98.2375 44.9874 98.7824 44.7407 99.1027 44.0646C99.5176 43.1884 99.8687 40.9812 98.2267 36.3615L103.315 34.5529C105.131 39.6623 105.312 43.5705 103.983 46.3771C102.558 49.3834 99.7827 50.3868 97.59 50.3868C95.1385 50.3868 93.012 49.3189 91.2326 47.8331C89.4689 46.3605 87.8951 44.3574 86.4679 42.1466C83.6226 37.7392 81.0018 31.9294 78.4933 26.3839C75.9319 20.7214 73.4828 15.3229 70.9015 11.3243C69.6154 9.33208 68.3857 7.8328 67.213 6.85364C66.0565 5.88799 65.1134 5.5549 64.3165 5.55481C63.5196 5.55481 62.5759 5.88775 61.4191 6.85364C60.2464 7.8328 59.0167 9.3321 57.7306 11.3243C55.1493 15.3229 52.7002 20.7215 50.1388 26.3839C47.6304 31.9293 45.0095 37.7392 42.1642 42.1466C40.7371 44.3572 39.1641 46.3606 37.4005 47.8331C35.621 49.319 33.4938 50.3868 31.0421 50.3868C26.7153 50.3868 22.7886 47.7784 19.5392 44.59C16.2185 41.3316 13.1694 37.0392 10.5802 32.7706C7.97851 28.4813 5.77546 24.1058 4.16908 20.6046C2.59635 17.1768 1.5103 14.402 1.23061 13.3595C0.875224 12.0349 0.0122051 9.43122 0.000137042 7.09875C-0.00628358 5.85627 0.21109 4.41112 1.03627 3.09387C1.89648 1.72073 3.2362 0.775125 4.9308 0.266724L6.48256 5.4386C5.84229 5.63067 5.67404 5.86273 5.61244 5.96106C5.51586 6.1154 5.3973 6.43589 5.40053 7.07043C5.40789 8.49346 5.94564 10.0935 6.44643 11.9601C6.59482 12.5132 7.49962 14.9141 9.07729 18.3527C10.6215 21.7183 12.7295 25.9012 15.1974 29.9698C17.6778 34.0591 20.4571 37.9249 23.3214 40.7355C26.257 43.6159 28.8719 44.9874 31.0421 44.9874C31.8391 44.9874 32.7828 44.6544 33.9396 43.6886C35.1122 42.7095 36.341 41.2099 37.6271 39.2179C40.2084 35.2194 42.6575 29.8207 45.2189 24.1583C47.7274 18.6128 50.3491 12.8031 53.1945 8.39563C54.6217 6.18486 56.1945 4.18074 57.9581 2.70813C59.7377 1.22235 61.865 0.154419 64.3165 0.154419Z" fill="url(#paint3_radial_3973_14256)"/>
<path d="M34.3613 34.7167C35.2611 36.0539 36.1773 37.3333 37.1123 38.5145C38.7559 40.591 40.3684 42.255 41.9268 43.3827C42.1379 43.5355 42.3456 43.6753 42.5488 43.8046L39.9668 48.5585C39.5543 48.3093 39.1521 48.0409 38.7607 47.7577C36.6447 46.2264 34.6813 44.1423 32.8789 41.8651C32.4076 41.2696 31.9419 40.6528 31.4814 40.0204L34.3613 34.7167Z" fill="#BF4DF3"/>
<path d="M34.3613 34.7167C35.2611 36.0539 36.1773 37.3333 37.1123 38.5145C38.7559 40.591 40.3684 42.255 41.9268 43.3827C42.1379 43.5355 42.3456 43.6753 42.5488 43.8046L39.9668 48.5585C39.5543 48.3093 39.1521 48.0409 38.7607 47.7577C36.6447 46.2264 34.6813 44.1423 32.8789 41.8651C32.4076 41.2696 31.9419 40.6528 31.4814 40.0204L34.3613 34.7167Z" fill="url(#paint4_linear_3973_14256)"/>
<path d="M34.3613 34.7167C35.2611 36.0539 36.1773 37.3333 37.1123 38.5145C38.7559 40.591 40.3684 42.255 41.9268 43.3827C42.1379 43.5355 42.3456 43.6753 42.5488 43.8046L39.9668 48.5585C39.5543 48.3093 39.1521 48.0409 38.7607 47.7577C36.6447 46.2264 34.6813 44.1423 32.8789 41.8651C32.4076 41.2696 31.9419 40.6528 31.4814 40.0204L34.3613 34.7167Z" fill="url(#paint5_radial_3973_14256)"/>
<defs>
<linearGradient id="paint0_linear_3973_14256" x1="101.708" y1="36.0565" x2="77.657" y2="2.66578" gradientUnits="userSpaceOnUse">
<stop offset="0.371479" stop-color="#BF4DF3"/>
<stop offset="1" stop-color="#BF4DF3" stop-opacity="0"/>
</linearGradient>
<radialGradient id="paint1_radial_3973_14256" cx="0" cy="0" r="1" gradientTransform="matrix(34.0912 43.1977 -91.7772 72.4295 7.60649 4.30033)" gradientUnits="userSpaceOnUse">
<stop offset="0.163111" stop-color="#BF4DF3"/>
<stop offset="0.982239" stop-color="#BF4DF3" stop-opacity="0"/>
</radialGradient>
<radialGradient id="paint2_radial_3973_14256" cx="0" cy="0" r="1" gradientUnits="userSpaceOnUse" gradientTransform="translate(5.73586 3.8333) rotate(81.8999) scale(31.6849 32.77)">
<stop offset="0.107357" stop-color="#BF4DF3"/>
<stop offset="1" stop-color="#BF4DF3" stop-opacity="0"/>
</radialGradient>
<radialGradient id="paint3_radial_3973_14256" cx="0" cy="0" r="1" gradientTransform="matrix(-11.3397 6.31068 -13.968 -25.0991 104.04 38.3914)" gradientUnits="userSpaceOnUse">
<stop offset="0.319606" stop-color="#BF4DF3"/>
<stop offset="1" stop-color="#BF4DF3" stop-opacity="0.0588235"/>
</radialGradient>
<linearGradient id="paint4_linear_3973_14256" x1="101.708" y1="36.0565" x2="77.657" y2="2.66579" gradientUnits="userSpaceOnUse">
<stop offset="0.371479" stop-color="#BF4DF3"/>
<stop offset="1" stop-color="#BF4DF3" stop-opacity="0"/>
</linearGradient>
<radialGradient id="paint5_radial_3973_14256" cx="0" cy="0" r="1" gradientTransform="matrix(34.0912 43.1977 -91.7772 72.4295 7.60649 4.30033)" gradientUnits="userSpaceOnUse">
<stop offset="0.163111" stop-color="#BF4DF3"/>
<stop offset="0.982239" stop-color="#BF4DF3" stop-opacity="0"/>
</radialGradient>
</defs>
</svg>
