<svg width="59" height="56" viewBox="0 0 59 56" fill="none" xmlns="http://www.w3.org/2000/svg">
<path d="M5.40039 35.1244V33.0209C5.40039 24.0187 12.6981 16.7212 21.7002 16.7211H24.2666C33.8211 16.7211 41.5674 24.4663 41.5674 34.0209V46.8324C41.5675 51.5642 45.4029 55.3998 50.1348 55.3998V50.0004C48.3853 50.0004 46.9669 48.5819 46.9668 46.8324V34.0209C46.9668 21.484 36.8035 11.3207 24.2666 11.3207H21.7002C9.71572 11.3208 0 21.0364 0 33.0209V35.1244C0 46.322 9.0778 55.3995 20.2754 55.3998V50.0004C12.0601 50.0001 5.40039 43.3397 5.40039 35.1244Z" fill="#BF4DF3"/>
<path d="M52.9727 46.7754V12.8887C52.9727 8.7529 49.6201 5.40039 45.4844 5.40039C41.3487 5.40045 37.9961 8.75294 37.9961 12.8887V37.0117C37.996 47.1674 29.7631 55.4004 19.6074 55.4004V50C26.7808 50 32.5956 44.1851 32.5957 37.0117V12.8887C32.5957 5.7706 38.3663 6.18472e-05 45.4844 0C52.6025 0 58.373 5.77057 58.373 12.8887V46.7754C58.373 51.5385 54.5112 55.4004 49.748 55.4004V50C51.5289 50 52.9727 48.5562 52.9727 46.7754Z" fill="#2E49FE"/>
<path d="M52.9727 46.7754V12.8887C52.9727 8.7529 49.6201 5.40039 45.4844 5.40039C41.3487 5.40045 37.9961 8.75294 37.9961 12.8887V37.0117C37.996 47.1674 29.7631 55.4004 19.6074 55.4004V50C26.7808 50 32.5956 44.1851 32.5957 37.0117V12.8887C32.5957 5.7706 38.3663 6.18472e-05 45.4844 0C52.6025 0 58.373 5.77057 58.373 12.8887V46.7754C58.373 51.5385 54.5112 55.4004 49.748 55.4004V50C51.5289 50 52.9727 48.5562 52.9727 46.7754Z" fill="url(#paint0_radial_4143_15939)"/>
<path d="M52.9727 46.7754V12.8887C52.9727 8.7529 49.6201 5.40039 45.4844 5.40039C41.3487 5.40045 37.9961 8.75294 37.9961 12.8887V37.0117C37.996 47.1674 29.7631 55.4004 19.6074 55.4004V50C26.7808 50 32.5956 44.1851 32.5957 37.0117V12.8887C32.5957 5.7706 38.3663 6.18472e-05 45.4844 0C52.6025 0 58.373 5.77057 58.373 12.8887V46.7754C58.373 51.5385 54.5112 55.4004 49.748 55.4004V50C51.5289 50 52.9727 48.5562 52.9727 46.7754Z" fill="url(#paint1_radial_4143_15939)"/>
<defs>
<radialGradient id="paint0_radial_4143_15939" cx="0" cy="0" r="1" gradientTransform="matrix(2 -12 10.3286 -0.612071 21.2002 52.7002)" gradientUnits="userSpaceOnUse">
<stop offset="0.246076" stop-color="#BF4DF3"/>
<stop offset="1" stop-color="#BF4DF3" stop-opacity="0"/>
</radialGradient>
<radialGradient id="paint1_radial_4143_15939" cx="0" cy="0" r="1" gradientTransform="matrix(2.58531 -11 10.4515 -0.140157 49.2002 54.2002)" gradientUnits="userSpaceOnUse">
<stop offset="0.23899" stop-color="#BF4DF3"/>
<stop offset="1" stop-color="#BF4DF3" stop-opacity="0"/>
</radialGradient>
</defs>
</svg>
