<svg width="391" height="75" viewBox="0 0 391 75" fill="none" xmlns="http://www.w3.org/2000/svg">
<path d="M5.40039 43.1244V41.0209C5.40039 32.0187 12.6981 24.7212 21.7002 24.7211H24.2666C33.8211 24.7211 41.5674 32.4663 41.5674 42.0209V54.8324C41.5675 59.5642 45.4029 63.3998 50.1348 63.3998V58.0004C48.3853 58.0004 46.9669 56.5819 46.9668 54.8324V42.0209C46.9668 29.484 36.8035 19.3207 24.2666 19.3207H21.7002C9.71572 19.3208 3.31863e-07 29.0364 0 41.0209V43.1244C0 54.322 9.0778 63.3995 20.2754 63.3998V58.0004C12.0601 58.0001 5.40039 51.3397 5.40039 43.1244Z" fill="#BF4DF3"/>
<path d="M52.9727 54.7754V20.8887C52.9727 16.7529 49.6201 13.4004 45.4844 13.4004C41.3487 13.4005 37.9961 16.7529 37.9961 20.8887V45.0117C37.996 55.1674 29.7631 63.4004 19.6074 63.4004V58C26.7808 58 32.5956 52.1851 32.5957 45.0117V20.8887C32.5957 13.7706 38.3663 8.00006 45.4844 8C52.6025 8 58.373 13.7706 58.373 20.8887V54.7754C58.373 59.5385 54.5112 63.4004 49.748 63.4004V58C51.5289 58 52.9727 56.5562 52.9727 54.7754Z" fill="#2E49FE"/>
<path d="M52.9727 54.7754V20.8887C52.9727 16.7529 49.6201 13.4004 45.4844 13.4004C41.3487 13.4005 37.9961 16.7529 37.9961 20.8887V45.0117C37.996 55.1674 29.7631 63.4004 19.6074 63.4004V58C26.7808 58 32.5956 52.1851 32.5957 45.0117V20.8887C32.5957 13.7706 38.3663 8.00006 45.4844 8C52.6025 8 58.373 13.7706 58.373 20.8887V54.7754C58.373 59.5385 54.5112 63.4004 49.748 63.4004V58C51.5289 58 52.9727 56.5562 52.9727 54.7754Z" fill="url(#paint0_radial_4697_18647)"/>
<path d="M52.9727 54.7754V20.8887C52.9727 16.7529 49.6201 13.4004 45.4844 13.4004C41.3487 13.4005 37.9961 16.7529 37.9961 20.8887V45.0117C37.996 55.1674 29.7631 63.4004 19.6074 63.4004V58C26.7808 58 32.5956 52.1851 32.5957 45.0117V20.8887C32.5957 13.7706 38.3663 8.00006 45.4844 8C52.6025 8 58.373 13.7706 58.373 20.8887V54.7754C58.373 59.5385 54.5112 63.4004 49.748 63.4004V58C51.5289 58 52.9727 56.5562 52.9727 54.7754Z" fill="url(#paint1_radial_4697_18647)"/>
<path d="M98.7623 60.8971C89.911 60.8971 83.6913 54.4381 83.6913 45.0486C83.6913 35.6591 90.0306 29.2001 99.3005 29.2001C104.623 29.2001 108.57 30.9943 111.082 34.7621V16.641H118.737V60H111.381V54.3783C109.049 58.5049 104.623 60.8971 98.7623 60.8971ZM101.334 55.2156C107.255 55.2156 111.262 51.5076 111.262 45.9457V44.3309C111.262 38.5298 107.195 34.8219 101.154 34.8219C95.1739 34.8219 91.5856 38.5896 91.5856 44.9888C91.5856 51.3282 95.2935 55.2156 101.334 55.2156ZM143.678 60.8971C132.674 60.8971 125.916 55.1558 125.916 45.3476C125.916 35.1807 132.734 29.2001 143.319 29.2001C154.024 29.2001 160.304 34.6424 160.304 44.2113V46.9624H133.392C133.691 52.0459 137.578 55.2156 143.917 55.2156C148.522 55.2156 151.991 53.4214 153.845 50.0125L159.826 52.7635C156.835 58.0264 151.273 60.8971 143.678 60.8971ZM133.392 42.1181H152.649V41.8191C152.649 36.8552 148.762 34.1042 143.2 34.1042C137.339 34.1042 133.691 37.1543 133.392 42.1181ZM183.276 60.8971C172.272 60.8971 165.514 55.1558 165.514 45.3476C165.514 35.1807 172.331 29.2001 182.917 29.2001C193.622 29.2001 199.902 34.6424 199.902 44.2113V46.9624H172.989C173.288 52.0459 177.176 55.2156 183.515 55.2156C188.12 55.2156 191.589 53.4214 193.443 50.0125L199.423 52.7635C196.433 58.0264 190.871 60.8971 183.276 60.8971ZM172.989 42.1181H192.247V41.8191C192.247 36.8552 188.359 34.1042 182.797 34.1042C176.937 34.1042 173.288 37.1543 172.989 42.1181ZM206.967 71.6621V30.0972H214.383V35.5395C216.835 31.4129 221.5 29.2001 227.002 29.2001C236.032 29.2001 242.013 35.4797 242.013 45.0486C242.013 54.5577 235.674 60.8971 226.643 60.8971C221.26 60.8971 216.835 58.5647 214.622 55.3352V71.6621H206.967ZM224.251 55.2156C230.411 55.2156 234.178 51.3282 234.178 44.9888C234.178 38.6494 230.53 34.8817 224.55 34.8817C218.509 34.8817 214.443 38.5298 214.443 44.2711V45.8261C214.443 51.5076 218.33 55.2156 224.251 55.2156ZM258.066 60L244.371 30.0972H252.624L261.117 49.9527C261.595 51.2086 261.954 52.4047 262.253 53.541H262.372C262.672 52.4047 263.03 51.2086 263.509 49.9527L272.001 30.0972H280.254L266.559 60H258.066ZM285.462 60V30.0972H293.117V60H285.462ZM285.103 25.1334V17.4782H293.476V25.1334H285.103ZM318.072 60.8971C307.068 60.8971 300.31 55.1558 300.31 45.3476C300.31 35.1807 307.128 29.2001 317.713 29.2001C328.418 29.2001 334.698 34.6424 334.698 44.2113V46.9624H307.785C308.084 52.0459 311.972 55.2156 318.311 55.2156C322.916 55.2156 326.385 53.4214 328.239 50.0125L334.22 52.7635C331.229 58.0264 325.667 60.8971 318.072 60.8971ZM307.785 42.1181H327.043V41.8191C327.043 36.8552 323.155 34.1042 317.594 34.1042C311.733 34.1042 308.084 37.1543 307.785 42.1181ZM347.876 60L337.649 30.0972H345.304L351.584 50.4311C351.823 51.3282 352.062 52.4047 352.182 53.4214H352.301C352.481 52.4047 352.72 51.2684 353.019 50.4311L360.016 30.0972H367.552L374.489 50.4311C374.788 51.2684 375.027 52.4047 375.207 53.4214H375.326L375.925 50.4311L382.204 30.0972H389.859L379.692 60H371.499L364.561 40.2642C364.262 39.3073 363.904 37.8719 363.844 37.0945H363.664C363.605 37.8719 363.306 39.3073 362.947 40.2642L356.009 60H347.876Z" fill="black"/>
<defs>
<radialGradient id="paint0_radial_4697_18647" cx="0" cy="0" r="1" gradientTransform="matrix(2 -12 10.3286 -0.612071 21.2002 60.7002)" gradientUnits="userSpaceOnUse">
<stop offset="0.246076" stop-color="#BF4DF3"/>
<stop offset="1" stop-color="#BF4DF3" stop-opacity="0"/>
</radialGradient>
<radialGradient id="paint1_radial_4697_18647" cx="0" cy="0" r="1" gradientTransform="matrix(2.58531 -11 10.4515 -0.140157 49.2002 62.2002)" gradientUnits="userSpaceOnUse">
<stop offset="0.23899" stop-color="#BF4DF3"/>
<stop offset="1" stop-color="#BF4DF3" stop-opacity="0"/>
</radialGradient>
</defs>
</svg>
