<svg width="64" height="55" viewBox="0 0 64 55" fill="none" xmlns="http://www.w3.org/2000/svg">
<path d="M5.40039 27.2002C5.40039 38.9256 14.3403 49 26.2002 49C30.643 49 34.7683 47.6739 38.2109 45.3965C40.4078 43.9432 42.3264 42.1022 43.8691 39.9722C44.2551 39.4392 44.6626 38.888 45 38.3203L49.5967 41.0801C47.4942 44.6172 44.6131 47.6356 41.1895 49.9004C36.8904 52.7442 31.7346 54.4004 26.2002 54.4004C10.9981 54.4004 0 41.5348 0 27.2002H5.40039Z" fill="#516EFF"/>
<path d="M42.2002 54.4004C51.2402 54.4004 59.7621 50.4699 63.2461 40.5986C64.2156 37.8515 63.7778 34.9931 61.8262 33.0107C59.9243 31.0789 57.0737 30.4722 54.1709 31.0527C51.2072 31.6455 49.1821 33.1592 47.5977 34.916C46.8325 35.7645 46.1613 36.6788 45.5518 37.54C45.3566 37.8158 45.1701 38.0826 44.9873 38.344C44.574 38.9348 44.2351 39.498 43.8 40.0752L48.0566 43.3252C48.7488 42.4069 49.4022 41.4473 49.96 40.6592C50.5448 39.8327 51.0651 39.1335 51.6074 38.5322C52.6379 37.3897 53.6934 36.6549 55.2295 36.3477C56.8266 36.0282 57.6624 36.4777 57.9785 36.7988C58.2449 37.0694 58.5569 37.661 58.1543 38.8018C55.6382 45.9305 49.6378 49 42.2002 49C30.1604 49 20.4004 39.24 20.4004 27.2002H15C15 42.2223 27.1781 54.4004 42.2002 54.4004Z" fill="#BF4DF3"/>
<path d="M42.2002 54.4004C51.2402 54.4004 59.7621 50.4699 63.2461 40.5986C64.2156 37.8515 63.7778 34.9931 61.8262 33.0107C59.9243 31.0789 57.0737 30.4722 54.1709 31.0527C51.2072 31.6455 49.1821 33.1592 47.5977 34.916C46.8325 35.7645 46.1613 36.6788 45.5518 37.54C45.3566 37.8158 45.1701 38.0826 44.9873 38.344C44.574 38.9348 44.2351 39.498 43.8 40.0752L48.0566 43.3252C48.7488 42.4069 49.4022 41.4473 49.96 40.6592C50.5448 39.8327 51.0651 39.1335 51.6074 38.5322C52.6379 37.3897 53.6934 36.6549 55.2295 36.3477C56.8266 36.0282 57.6624 36.4777 57.9785 36.7988C58.2449 37.0694 58.5569 37.661 58.1543 38.8018C55.6382 45.9305 49.6378 49 42.2002 49C30.1604 49 20.4004 39.24 20.4004 27.2002H15C15 42.2223 27.1781 54.4004 42.2002 54.4004Z" fill="url(#paint0_radial_3973_14278)"/>
<path d="M5.40039 27.2002C5.40039 15.4748 14.3403 5.40039 26.2002 5.40039C30.643 5.40039 34.7683 6.72647 38.2109 9.00391C40.7447 10.6802 42.9085 12.8721 44.5521 15.4284C44.6901 15.6431 44.8694 15.8604 45 16.0801L49.5967 13.3203C47.4942 9.78323 44.6131 6.76484 41.1895 4.5C36.8904 1.65615 31.7346 0 26.2002 0C10.9981 0 0 12.8656 0 27.2002H5.40039Z" fill="#516EFF"/>
<path d="M42.2002 0C51.0988 0 59.4956 3.80839 63.0791 13.3428L63.2461 13.8018L63.2705 13.8691L63.29 13.9385C64.0813 16.6286 63.6693 19.4319 61.7637 21.3994C59.8748 23.3496 57.0567 23.9248 54.1709 23.3477C51.2072 22.7549 49.1821 21.2412 47.5977 19.4844C46.8325 18.6359 46.1613 17.7216 45.5518 16.8604C45.3611 16.5909 45.1788 16.3301 45 16.0746C44.5821 15.4771 44.2395 14.9083 43.8 14.3252L48.0566 11.0752C48.7488 11.9934 49.4022 12.9531 49.96 13.7412C50.5448 14.5677 51.0651 15.2669 51.6074 15.8682C52.6379 17.0107 53.6934 17.7455 55.2295 18.0527C56.8436 18.3756 57.6079 17.9285 57.8848 17.6426C58.1402 17.3788 58.4689 16.7504 58.1279 15.5293C55.5974 8.45041 49.6134 5.40039 42.2002 5.40039C30.1604 5.40039 20.4004 15.1604 20.4004 27.2002H15C15 12.1781 27.1781 0 42.2002 0Z" fill="#BF4DF3"/>
<path d="M42.2002 0C51.0988 0 59.4956 3.80839 63.0791 13.3428L63.2461 13.8018L63.2705 13.8691L63.29 13.9385C64.0813 16.6286 63.6693 19.4319 61.7637 21.3994C59.8748 23.3496 57.0567 23.9248 54.1709 23.3477C51.2072 22.7549 49.1821 21.2412 47.5977 19.4844C46.8325 18.6359 46.1613 17.7216 45.5518 16.8604C45.3611 16.5909 45.1788 16.3301 45 16.0746C44.5821 15.4771 44.2395 14.9083 43.8 14.3252L48.0566 11.0752C48.7488 11.9934 49.4022 12.9531 49.96 13.7412C50.5448 14.5677 51.0651 15.2669 51.6074 15.8682C52.6379 17.0107 53.6934 17.7455 55.2295 18.0527C56.8436 18.3756 57.6079 17.9285 57.8848 17.6426C58.1402 17.3788 58.4689 16.7504 58.1279 15.5293C55.5974 8.45041 49.6134 5.40039 42.2002 5.40039C30.1604 5.40039 20.4004 15.1604 20.4004 27.2002H15C15 12.1781 27.1781 0 42.2002 0Z" fill="url(#paint1_radial_3973_14278)"/>
<path d="M5.40039 27.2002C5.40039 15.4748 14.3403 5.40039 26.2002 5.40039C30.643 5.40039 34.7683 6.72647 38.2109 9.00391C40.7294 10.67 42.8823 12.8456 44.5222 15.3821C44.6707 15.6118 44.86 15.8445 45 16.0801L49.5967 13.3203C47.4942 9.78323 44.6131 6.76484 41.1895 4.5C36.8904 1.65615 31.7346 0 26.2002 0C10.9981 0 0 12.8656 0 27.2002H5.40039Z" fill="#516EFF"/>
<defs>
<radialGradient id="paint0_radial_3973_14278" cx="0" cy="0" r="1" gradientUnits="userSpaceOnUse" gradientTransform="translate(46.5 41.7002) rotate(-11.0232) scale(7.84493)">
<stop offset="0.321219" stop-color="#516EFF"/>
<stop offset="1" stop-color="#516EFF" stop-opacity="0"/>
</radialGradient>
<radialGradient id="paint1_radial_3973_14278" cx="0" cy="0" r="1" gradientUnits="userSpaceOnUse" gradientTransform="translate(47 14.7002) rotate(53.8917) scale(10.521 10.521)">
<stop offset="0.187824" stop-color="#516EFF"/>
<stop offset="1" stop-color="#516EFF" stop-opacity="0"/>
</radialGradient>
</defs>
</svg>
