<svg width="325" height="75" viewBox="0 0 325 75" fill="none" xmlns="http://www.w3.org/2000/svg">
<path d="M5.40039 42.5C5.40039 54.2254 14.3403 64.2998 26.2002 64.2998C30.643 64.2998 34.7683 62.9737 38.2109 60.6963C40.4078 59.243 42.3264 57.402 43.8691 55.272C44.2551 54.739 44.6626 54.1878 45 53.6201L49.5967 56.3799C47.4942 59.917 44.6131 62.9354 41.1895 65.2002C36.8904 68.044 31.7346 69.7002 26.2002 69.7002C10.9981 69.7002 0 56.8346 0 42.5H5.40039Z" fill="#2E49FE"/>
<path d="M42.2002 69.7002C51.2402 69.7002 59.7621 65.7697 63.2461 55.8984C64.2156 53.1513 63.7778 50.2929 61.8262 48.3105C59.9243 46.3787 57.0737 45.772 54.1709 46.3525C51.2072 46.9453 49.1821 48.459 47.5977 50.2158C46.8325 51.0643 46.1613 51.9786 45.5518 52.8398C45.3566 53.1156 45.1701 53.3824 44.9873 53.6438C44.574 54.2346 44.2351 54.7978 43.8 55.375L48.0566 58.625C48.7488 57.7068 49.4022 56.7471 49.96 55.959C50.5448 55.1325 51.0651 54.4333 51.6074 53.832C52.6379 52.6895 53.6934 51.9547 55.2295 51.6475C56.8266 51.328 57.6624 51.7776 57.9785 52.0986C58.2449 52.3692 58.5569 52.9608 58.1543 54.1016C55.6382 61.2303 49.6378 64.2998 42.2002 64.2998C30.1604 64.2998 20.4004 54.5398 20.4004 42.5H15C15 57.5221 27.1781 69.7002 42.2002 69.7002Z" fill="#BF4DF3"/>
<path d="M42.2002 69.7002C51.2402 69.7002 59.7621 65.7697 63.2461 55.8984C64.2156 53.1513 63.7778 50.2929 61.8262 48.3105C59.9243 46.3787 57.0737 45.772 54.1709 46.3525C51.2072 46.9453 49.1821 48.459 47.5977 50.2158C46.8325 51.0643 46.1613 51.9786 45.5518 52.8398C45.3566 53.1156 45.1701 53.3824 44.9873 53.6438C44.574 54.2346 44.2351 54.7978 43.8 55.375L48.0566 58.625C48.7488 57.7068 49.4022 56.7471 49.96 55.959C50.5448 55.1325 51.0651 54.4333 51.6074 53.832C52.6379 52.6895 53.6934 51.9547 55.2295 51.6475C56.8266 51.328 57.6624 51.7776 57.9785 52.0986C58.2449 52.3692 58.5569 52.9608 58.1543 54.1016C55.6382 61.2303 49.6378 64.2998 42.2002 64.2998C30.1604 64.2998 20.4004 54.5398 20.4004 42.5H15C15 57.5221 27.1781 69.7002 42.2002 69.7002Z" fill="url(#paint0_radial_3973_14228)"/>
<path d="M5.40039 42.5C5.40039 30.7746 14.3403 20.7002 26.2002 20.7002C30.643 20.7002 34.7683 22.0263 38.2109 24.3037C40.7447 25.98 42.9085 28.1719 44.5521 30.7282C44.6901 30.9429 44.8694 31.1602 45 31.3799L49.5967 28.6201C47.4942 25.083 44.6131 22.0646 41.1895 19.7998C36.8904 16.956 31.7346 15.2998 26.2002 15.2998C10.9981 15.2998 0 28.1654 0 42.5H5.40039Z" fill="#2E49FE"/>
<path d="M42.2002 15.2998C51.0988 15.2998 59.4956 19.1082 63.0791 28.6426L63.2461 29.1016L63.2705 29.1689L63.29 29.2383C64.0813 31.9284 63.6693 34.7317 61.7637 36.6992C59.8748 38.6494 57.0567 39.2246 54.1709 38.6475C51.2072 38.0547 49.1821 36.541 47.5977 34.7842C46.8325 33.9357 46.1613 33.0214 45.5518 32.1602C45.3611 31.8908 45.1788 31.6299 45 31.3744C44.5821 30.7769 44.2395 30.2081 43.8 29.625L48.0566 26.375C48.7488 27.2932 49.4022 28.2529 49.96 29.041C50.5448 29.8675 51.0651 30.5667 51.6074 31.168C52.6379 32.3105 53.6934 33.0453 55.2295 33.3525C56.8436 33.6754 57.6079 33.2283 57.8848 32.9424C58.1402 32.6786 58.4689 32.0502 58.1279 30.8291C55.5974 23.7502 49.6134 20.7002 42.2002 20.7002C30.1604 20.7002 20.4004 30.4602 20.4004 42.5H15C15 27.4779 27.1781 15.2998 42.2002 15.2998Z" fill="#BF4DF3"/>
<path d="M42.2002 15.2998C51.0988 15.2998 59.4956 19.1082 63.0791 28.6426L63.2461 29.1016L63.2705 29.1689L63.29 29.2383C64.0813 31.9284 63.6693 34.7317 61.7637 36.6992C59.8748 38.6494 57.0567 39.2246 54.1709 38.6475C51.2072 38.0547 49.1821 36.541 47.5977 34.7842C46.8325 33.9357 46.1613 33.0214 45.5518 32.1602C45.3611 31.8908 45.1788 31.6299 45 31.3744C44.5821 30.7769 44.2395 30.2081 43.8 29.625L48.0566 26.375C48.7488 27.2932 49.4022 28.2529 49.96 29.041C50.5448 29.8675 51.0651 30.5667 51.6074 31.168C52.6379 32.3105 53.6934 33.0453 55.2295 33.3525C56.8436 33.6754 57.6079 33.2283 57.8848 32.9424C58.1402 32.6786 58.4689 32.0502 58.1279 30.8291C55.5974 23.7502 49.6134 20.7002 42.2002 20.7002C30.1604 20.7002 20.4004 30.4602 20.4004 42.5H15C15 27.4779 27.1781 15.2998 42.2002 15.2998Z" fill="url(#paint1_radial_3973_14228)"/>
<path d="M5.40039 42.5C5.40039 30.7746 14.3403 20.7002 26.2002 20.7002C30.643 20.7002 34.7683 22.0263 38.2109 24.3037C40.7294 25.9698 42.8823 28.1455 44.5222 30.6819C44.6708 30.9116 44.86 31.1443 45 31.3799L49.5967 28.6201C47.4942 25.083 44.6131 22.0646 41.1895 19.7998C36.8904 16.956 31.7346 15.2998 26.2002 15.2998C10.9981 15.2998 0 28.1654 0 42.5H5.40039Z" fill="#2E49FE"/>
<path d="M104.274 60.8971C93.5689 60.8971 86.6314 54.6773 86.6314 45.0486C86.6314 35.2405 93.5091 29.2001 104.453 29.2001C113.604 29.2001 119.465 33.0875 120.9 40.2642L113.125 41.4005C112.228 37.2141 109.118 35.0013 104.214 35.0013C98.1141 35.0013 94.5258 38.7092 94.5258 44.929C94.5258 51.2684 98.2337 55.0959 104.334 55.0959C109.118 55.0959 112.228 52.8831 113.305 48.6369L120.9 50.0125C119.405 56.7705 113.125 60.8971 104.274 60.8971ZM134.731 37.9916C136.346 32.7885 140.293 29.3198 145.915 29.3198C146.752 29.3198 147.35 29.3198 148.068 29.4394V36.5562C147.291 36.4366 146.573 36.3768 145.676 36.3768C142.207 36.3768 139.935 37.3337 138.26 38.9484C135.928 41.3407 135.389 44.6898 135.389 48.2781V60H127.734V30.0972H134.731V37.9916ZM163.604 60.8971C156.189 60.8971 151.404 57.4882 151.404 51.9262C151.404 49.1154 152.66 46.7232 154.992 45.228C157.086 43.8525 160.016 42.9554 165.698 42.4172L176.702 41.5201V40.8622C176.702 36.4964 174.011 34.4032 168.867 34.4032C163.903 34.4032 160.853 36.3768 160.375 39.9053H152.361C153.079 33.3865 159.418 29.2001 168.867 29.2001C179.453 29.2001 184.417 33.2669 184.417 41.8789V50.3713C184.417 54.8567 184.656 57.6078 185.194 60H177.479C177.24 58.4451 177.061 56.4715 177.061 54.5577C174.968 58.5647 170.243 60.8971 163.604 60.8971ZM166.176 55.7538C172.456 55.7538 176.821 52.5243 176.821 47.4408V45.8261L166.595 46.783C161.272 47.381 159.358 48.7566 159.358 51.5076C159.358 54.1989 161.87 55.7538 166.176 55.7538ZM199.318 60L189.091 30.0972H196.746L203.026 50.4311C203.265 51.3282 203.504 52.4047 203.624 53.4214H203.743C203.923 52.4047 204.162 51.2684 204.461 50.4311L211.458 30.0972H218.994L225.931 50.4311C226.23 51.2684 226.469 52.4047 226.649 53.4214H226.768L227.367 50.4311L233.646 30.0972H241.301L231.134 60H222.941L216.003 40.2642C215.704 39.3073 215.346 37.8719 215.286 37.0945H215.106C215.047 37.8719 214.748 39.3073 214.389 40.2642L207.451 60H199.318ZM254.416 16.641V60H246.761V16.641H254.416ZM279.372 60.8971C268.367 60.8971 261.609 55.1558 261.609 45.3476C261.609 35.1807 268.427 29.2001 279.013 29.2001C289.718 29.2001 295.998 34.6424 295.998 44.2113V46.9624H269.085C269.384 52.0459 273.271 55.2156 279.611 55.2156C284.216 55.2156 287.685 53.4214 289.539 50.0125L295.519 52.7635C292.529 58.0264 286.967 60.8971 279.372 60.8971ZM269.085 42.1181H288.342V41.8191C288.342 36.8552 284.455 34.1042 278.893 34.1042C273.032 34.1042 269.384 37.1543 269.085 42.1181ZM310.06 37.9916C311.675 32.7885 315.622 29.3198 321.243 29.3198C322.081 29.3198 322.679 29.3198 323.396 29.4394V36.5562C322.619 36.4366 321.901 36.3768 321.004 36.3768C317.536 36.3768 315.263 37.3337 313.588 38.9484C311.256 41.3407 310.718 44.6898 310.718 48.2781V60H303.063V30.0972H310.06V37.9916Z" fill="black"/>
<defs>
<radialGradient id="paint0_radial_3973_14228" cx="0" cy="0" r="1" gradientUnits="userSpaceOnUse" gradientTransform="translate(46 57) rotate(-10.3661) scale(8.33626)">
<stop offset="0.197115" stop-color="#2E49FE"/>
<stop offset="1" stop-color="#2E49FE" stop-opacity="0"/>
</radialGradient>
<radialGradient id="paint1_radial_3973_14228" cx="0" cy="0" r="1" gradientUnits="userSpaceOnUse" gradientTransform="translate(47 30) rotate(53.8917) scale(10.521 10.521)">
<stop offset="0.187824" stop-color="#2E49FE"/>
<stop offset="1" stop-color="#2E49FE" stop-opacity="0"/>
</radialGradient>
</defs>
</svg>
