<svg width="58" height="56" viewBox="0 0 58 56" fill="none" xmlns="http://www.w3.org/2000/svg">
<path d="M39.623 45.3887V22.5117C39.623 13.0613 31.9622 5.40039 22.5117 5.40039C13.0613 5.4004 5.40039 13.0613 5.40039 22.5117V45.625C5.40058 48.0413 7.35912 49.9998 9.77539 50V55.38C9.60718 55.38 9.43996 55.3961 9.27383 55.3877C4.1083 55.1265 0.00018434 50.8554 0 45.625V22.5117C2.78505e-06 10.0789 10.079 4.6064e-06 22.5117 0C34.9445 0 45.0234 10.0789 45.0234 22.5117V45.3887C45.0234 47.9355 47.088 50 49.6348 50V55.38C49.4956 55.38 49.357 55.3856 49.2192 55.38C43.8828 55.1621 39.623 50.7786 39.623 45.3887Z" fill="#2E49FE"/>
<path d="M39.623 45.3887V22.5117C39.623 13.0613 31.9622 5.40039 22.5117 5.40039C13.0613 5.4004 5.40039 13.0613 5.40039 22.5117V45.625C5.40058 48.0413 7.35912 49.9998 9.77539 50V55.38C9.60718 55.38 9.43996 55.3961 9.27383 55.3877C4.1083 55.1265 0.00018434 50.8554 0 45.625V22.5117C2.78505e-06 10.0789 10.079 4.6064e-06 22.5117 0C34.9445 0 45.0234 10.0789 45.0234 22.5117V45.3887C45.0234 47.9355 47.088 50 49.6348 50V55.38C49.4956 55.38 49.357 55.3856 49.2192 55.38C43.8828 55.1621 39.623 50.7786 39.623 45.3887Z" fill="url(#paint0_radial_3973_14243)"/>
<path d="M17.4282 47.2758V34.0209C17.4282 24.4663 25.1735 16.7211 34.728 16.7211H35.2944C44.849 16.7211 52.5942 24.4663 52.5942 34.0209V46.5677C52.5942 48.4632 51.058 50.0002 49.1626 50.0004V55.38C49.3295 55.38 49.4953 55.3951 49.6599 55.386C54.3063 55.1279 57.9946 51.2786 57.9946 46.5677V34.0209C57.9946 21.484 47.8313 11.3207 35.2944 11.3207H34.728C22.1912 11.3207 12.0278 21.484 12.0278 34.0209V47.2758C12.0277 48.7804 10.8079 50.0004 9.30322 50.0004V55.38C9.48082 55.38 9.65709 55.3941 9.83185 55.3829C14.0725 55.1105 17.4281 51.5851 17.4282 47.2758Z" fill="#BF4DF3"/>
<path d="M39.623 45.3887V22.5117C39.623 13.0613 31.9622 5.40039 22.5117 5.40039C13.0613 5.4004 5.40039 13.0613 5.40039 22.5117V45.625C5.40058 48.0413 7.35912 49.9998 9.77539 50V55.38C9.6125 55.38 9.45054 55.3964 9.2896 55.3885C4.11666 55.1352 0.000184528 50.8607 0 45.625V22.5117C2.78505e-06 10.0789 10.079 4.6064e-06 22.5117 0C34.9445 0 45.0234 10.0789 45.0234 22.5117V45.3887C45.0234 47.9355 47.088 50 49.6348 50V55.38C49.4618 55.38 49.2899 55.396 49.1191 55.3873C43.8296 55.119 39.623 50.7449 39.623 45.3887Z" fill="#2E49FE"/>
<path d="M39.623 45.3887V22.5117C39.623 13.0613 31.9622 5.40039 22.5117 5.40039C13.0613 5.4004 5.40039 13.0613 5.40039 22.5117V45.625C5.40058 48.0413 7.35912 49.9998 9.77539 50V55.38C9.6125 55.38 9.45054 55.3964 9.2896 55.3885C4.11666 55.1352 0.000184528 50.8607 0 45.625V22.5117C2.78505e-06 10.0789 10.079 4.6064e-06 22.5117 0C34.9445 0 45.0234 10.0789 45.0234 22.5117V45.3887C45.0234 47.9355 47.088 50 49.6348 50V55.38C49.4618 55.38 49.2899 55.396 49.1191 55.3873C43.8296 55.119 39.623 50.7449 39.623 45.3887Z" fill="url(#paint1_radial_3973_14243)"/>
<path d="M39.623 45.3887V22.5117C39.623 13.0613 31.9622 5.40039 22.5117 5.40039C13.0613 5.4004 5.40039 13.0613 5.40039 22.5117V45.625C5.40058 48.0413 7.35912 49.9998 9.77539 50V55.38C9.6125 55.38 9.45054 55.3964 9.2896 55.3885C4.11666 55.1352 0.000184528 50.8607 0 45.625V22.5117C2.78505e-06 10.0789 10.079 4.6064e-06 22.5117 0C34.9445 0 45.0234 10.0789 45.0234 22.5117V45.3887C45.0234 47.9355 47.088 50 49.6348 50V55.38C49.4618 55.38 49.2899 55.396 49.1191 55.3873C43.8296 55.119 39.623 50.7449 39.623 45.3887Z" fill="url(#paint2_radial_3973_14243)"/>
<defs>
<radialGradient id="paint0_radial_3973_14243" cx="0" cy="0" r="1" gradientUnits="userSpaceOnUse" gradientTransform="translate(8.7002 52.7002) rotate(-89.0122) scale(29.0043 27.226)">
<stop stop-color="#BF4DF3"/>
<stop offset="1" stop-color="#BF4DF3" stop-opacity="0"/>
</radialGradient>
<radialGradient id="paint1_radial_3973_14243" cx="0" cy="0" r="1" gradientUnits="userSpaceOnUse" gradientTransform="translate(9.2002 52.2002) rotate(-123.024) scale(11.9269 11.1956)">
<stop offset="0.207836" stop-color="#BF4DF3"/>
<stop offset="1" stop-color="#BF4DF3" stop-opacity="0"/>
</radialGradient>
<radialGradient id="paint2_radial_3973_14243" cx="0" cy="0" r="1" gradientUnits="userSpaceOnUse" gradientTransform="translate(49.2002 51.7002) rotate(-133.264) scale(11.6726 10.957)">
<stop offset="0.23899" stop-color="#BF4DF3"/>
<stop offset="1" stop-color="#BF4DF3" stop-opacity="0"/>
</radialGradient>
</defs>
</svg>
