<svg width="207" height="75" viewBox="0 0 207 75" fill="none" xmlns="http://www.w3.org/2000/svg">
<path d="M39.623 53.6885V30.8115C39.623 21.3611 31.9622 13.7002 22.5117 13.7002C13.0613 13.7002 5.40039 21.3611 5.40039 30.8115V53.9248C5.40058 56.3411 7.35912 58.2996 9.77539 58.2998V63.6798C9.60718 63.6798 9.43996 63.6959 9.27383 63.6875C4.1083 63.4263 0.00018434 59.1552 0 53.9248V30.8115C2.78505e-06 18.3788 10.079 8.29981 22.5117 8.2998C34.9445 8.2998 45.0234 18.3788 45.0234 30.8115V53.6885C45.0234 56.2353 47.088 58.2998 49.6348 58.2998V63.6798C49.4956 63.6798 49.357 63.6854 49.2192 63.6798C43.8828 63.4619 39.623 59.0784 39.623 53.6885Z" fill="#2E49FE"/>
<path d="M39.623 53.6885V30.8115C39.623 21.3611 31.9622 13.7002 22.5117 13.7002C13.0613 13.7002 5.40039 21.3611 5.40039 30.8115V53.9248C5.40058 56.3411 7.35912 58.2996 9.77539 58.2998V63.6798C9.60718 63.6798 9.43996 63.6959 9.27383 63.6875C4.1083 63.4263 0.00018434 59.1552 0 53.9248V30.8115C2.78505e-06 18.3788 10.079 8.29981 22.5117 8.2998C34.9445 8.2998 45.0234 18.3788 45.0234 30.8115V53.6885C45.0234 56.2353 47.088 58.2998 49.6348 58.2998V63.6798C49.4956 63.6798 49.357 63.6854 49.2192 63.6798C43.8828 63.4619 39.623 59.0784 39.623 53.6885Z" fill="url(#paint0_radial_4697_18646)"/>
<path d="M17.4287 55.5756V42.3207C17.4287 32.7662 25.174 25.0209 34.7285 25.0209H35.2949C44.8494 25.0209 52.5947 32.7662 52.5947 42.3207V54.8676C52.5947 56.763 51.0585 58.3 49.1631 58.3002V63.6798C49.33 63.6798 49.4958 63.6949 49.6604 63.6858C54.3068 63.4277 57.9951 59.5784 57.9951 54.8676V42.3207C57.9951 29.7838 47.8318 19.6205 35.2949 19.6205H34.7285C22.1917 19.6205 12.0283 29.7838 12.0283 42.3207V55.5756C12.0282 57.0802 10.8084 58.3002 9.30371 58.3002V63.6798C9.48131 63.6798 9.65757 63.6939 9.83234 63.6827C14.073 63.4103 17.4286 59.8849 17.4287 55.5756Z" fill="#BF4DF3"/>
<path d="M39.623 53.6885V30.8115C39.623 21.3611 31.9622 13.7002 22.5117 13.7002C13.0613 13.7002 5.40039 21.3611 5.40039 30.8115V53.9248C5.40058 56.3411 7.35912 58.2996 9.77539 58.2998V63.6798C9.6125 63.6798 9.45054 63.6962 9.2896 63.6883C4.11666 63.435 0.000184528 59.1605 0 53.9248V30.8115C2.78505e-06 18.3788 10.079 8.29981 22.5117 8.2998C34.9445 8.2998 45.0234 18.3788 45.0234 30.8115V53.6885C45.0234 56.2353 47.088 58.2998 49.6348 58.2998V63.6798C49.4618 63.6798 49.2899 63.6958 49.1191 63.6871C43.8296 63.4188 39.623 59.0447 39.623 53.6885Z" fill="#2E49FE"/>
<path d="M39.623 53.6885V30.8115C39.623 21.3611 31.9622 13.7002 22.5117 13.7002C13.0613 13.7002 5.40039 21.3611 5.40039 30.8115V53.9248C5.40058 56.3411 7.35912 58.2996 9.77539 58.2998V63.6798C9.6125 63.6798 9.45054 63.6962 9.2896 63.6883C4.11666 63.435 0.000184528 59.1605 0 53.9248V30.8115C2.78505e-06 18.3788 10.079 8.29981 22.5117 8.2998C34.9445 8.2998 45.0234 18.3788 45.0234 30.8115V53.6885C45.0234 56.2353 47.088 58.2998 49.6348 58.2998V63.6798C49.4618 63.6798 49.2899 63.6958 49.1191 63.6871C43.8296 63.4188 39.623 59.0447 39.623 53.6885Z" fill="url(#paint1_radial_4697_18646)"/>
<path d="M39.623 53.6885V30.8115C39.623 21.3611 31.9622 13.7002 22.5117 13.7002C13.0613 13.7002 5.40039 21.3611 5.40039 30.8115V53.9248C5.40058 56.3411 7.35912 58.2996 9.77539 58.2998V63.6798C9.6125 63.6798 9.45054 63.6962 9.2896 63.6883C4.11666 63.435 0.000184528 59.1605 0 53.9248V30.8115C2.78505e-06 18.3788 10.079 8.29981 22.5117 8.2998C34.9445 8.2998 45.0234 18.3788 45.0234 30.8115V53.6885C45.0234 56.2353 47.088 58.2998 49.6348 58.2998V63.6798C49.4618 63.6798 49.2899 63.6958 49.1191 63.6871C43.8296 63.4188 39.623 59.0447 39.623 53.6885Z" fill="url(#paint2_radial_4697_18646)"/>
<path d="M85.5452 60V16.641H93.2003V36.1974C95.5328 31.6522 99.8388 29.2001 105.58 29.2001C114.072 29.2001 118.618 34.2238 118.618 43.7329V60H111.022V44.5104C111.022 38.3504 108.152 35.1807 102.65 35.1807C96.7887 35.1807 93.2003 38.9484 93.2003 45.2878V60H85.5452ZM139.863 60.8971C131.132 60.8971 127.005 56.2323 127.005 47.7997V30.0972H134.66V46.6036C134.66 52.7635 138.069 54.9763 142.315 54.9763C148.774 54.9763 151.944 50.3713 151.944 45.1682V30.0972H159.539V60H152.183V53.6008C150.269 58.146 145.545 60.8971 139.863 60.8971ZM188.388 60.8971C182.527 60.8971 178.221 58.4451 176.068 54.8567L175.351 60H168.712V16.641H176.367V35.1807C178.64 31.5326 183.125 29.2001 188.747 29.2001C197.778 29.2001 203.758 35.5993 203.758 44.9888C203.758 54.4381 197.598 60.8971 188.388 60.8971ZM185.936 55.2156C192.036 55.2156 195.924 51.2086 195.924 44.9888C195.924 38.769 192.276 34.8817 186.176 34.8817C180.135 34.8817 176.188 38.5298 176.188 44.2711V45.8859C176.188 51.5076 180.016 55.2156 185.936 55.2156Z" fill="black"/>
<defs>
<radialGradient id="paint0_radial_4697_18646" cx="0" cy="0" r="1" gradientUnits="userSpaceOnUse" gradientTransform="translate(8.7002 61) rotate(-89.0122) scale(29.0043 27.226)">
<stop stop-color="#BF4DF3"/>
<stop offset="1" stop-color="#BF4DF3" stop-opacity="0"/>
</radialGradient>
<radialGradient id="paint1_radial_4697_18646" cx="0" cy="0" r="1" gradientUnits="userSpaceOnUse" gradientTransform="translate(9.2002 60.5) rotate(-123.024) scale(11.9269 11.1956)">
<stop offset="0.207836" stop-color="#BF4DF3"/>
<stop offset="1" stop-color="#BF4DF3" stop-opacity="0"/>
</radialGradient>
<radialGradient id="paint2_radial_4697_18646" cx="0" cy="0" r="1" gradientUnits="userSpaceOnUse" gradientTransform="translate(49.2002 60) rotate(-133.264) scale(11.6726 10.957)">
<stop offset="0.23899" stop-color="#BF4DF3"/>
<stop offset="1" stop-color="#BF4DF3" stop-opacity="0"/>
</radialGradient>
</defs>
</svg>
