<svg width="394" height="75" viewBox="0 0 394 75" fill="none" xmlns="http://www.w3.org/2000/svg">
<path d="M4.42676 15.7207C8.19321 14.4797 10.9604 16.2297 12.9199 17.6406C13.6388 18.1583 14.3834 18.9212 15.0449 19.6641C15.7392 20.4436 16.4719 21.351 17.1768 22.2656C18.5871 24.0958 19.9584 26.0544 20.7969 27.3096L20.833 27.3643L20.8662 27.419V27.4199L20.8672 27.4209C20.8676 27.4216 20.8685 27.4227 20.8691 27.4238C20.8707 27.4265 20.873 27.4306 20.876 27.4356C20.8822 27.4459 20.8913 27.4615 20.9033 27.4815C20.9275 27.5217 20.9631 27.5813 21.0098 27.6592C21.1035 27.8156 21.2415 28.0464 21.4189 28.3438C21.7741 28.9387 22.2879 29.8016 22.9229 30.874C24.1926 33.0187 25.9485 36.004 27.8936 39.3662C30.7297 44.2688 33.8136 49.645 37.1123 53.8125C38.7559 55.889 40.3684 57.553 41.9268 58.6807C43.484 59.8075 44.8244 60.2832 45.9883 60.2832C46.7852 60.2832 47.7289 59.9493 48.8857 58.9834C50.0582 58.0043 51.2874 56.5055 52.5732 54.5137C55.1545 50.5152 57.6037 45.1165 60.165 39.4541C62.6735 33.9086 65.2953 28.0989 68.1406 23.6914C69.5678 21.4807 71.1406 19.4765 72.9043 18.0039C74.6838 16.5182 76.8112 15.4502 79.2627 15.4502C82.4391 15.4504 85.197 17.2004 87.4541 19.4219C89.7431 21.6748 91.8475 24.7322 93.7529 28.0801C97.5714 34.7895 100.888 43.2025 103.411 50.1524L98.335 51.9961C95.8265 45.0878 92.638 37.0387 89.0596 30.751C87.2665 27.6005 85.449 25.0254 83.666 23.2705C81.8514 21.4845 80.3866 20.8507 79.2627 20.8506C78.4658 20.8506 77.522 21.1836 76.3652 22.1494C75.1925 23.1286 73.9629 24.6279 72.6768 26.6201C70.0954 30.6186 67.6463 36.0173 65.085 41.6797C62.5765 47.2251 59.9557 53.035 57.1104 57.4424C55.6832 59.653 54.1102 61.6564 52.3467 63.1289C50.5671 64.6148 48.4399 65.6826 45.9883 65.6826C43.3108 65.6826 40.8778 64.5877 38.7607 63.0557C36.6447 61.5243 34.6813 59.4402 32.8789 57.1631C29.2855 52.6232 25.9946 46.8669 23.2197 42.0703C21.2858 38.7274 19.5393 35.7582 18.2764 33.625C17.645 32.5586 17.1344 31.7014 16.7822 31.1113C16.6062 30.8163 16.4693 30.5878 16.377 30.4336C16.3309 30.3566 16.296 30.298 16.2725 30.2588C15.483 29.0796 14.2015 27.2513 12.8994 25.5615C12.2386 24.704 11.5914 23.9057 11.0127 23.2559C10.4014 22.5695 9.97977 22.1784 9.76465 22.0234C8.86233 21.3737 8.23834 21.0028 7.68262 20.8223C7.22348 20.6731 6.76123 20.6371 6.11621 20.8496L4.42676 15.7207Z" fill="#BF4DF3"/>
<path d="M4.42676 15.7207C8.19321 14.4797 10.9604 16.2297 12.9199 17.6406C13.6388 18.1583 14.3834 18.9212 15.0449 19.6641C15.7392 20.4436 16.4719 21.351 17.1768 22.2656C18.5871 24.0958 19.9584 26.0544 20.7969 27.3096L20.833 27.3643L20.8662 27.419V27.4199L20.8672 27.4209C20.8676 27.4216 20.8685 27.4227 20.8691 27.4238C20.8707 27.4265 20.873 27.4306 20.876 27.4356C20.8822 27.4459 20.8913 27.4615 20.9033 27.4815C20.9275 27.5217 20.9631 27.5813 21.0098 27.6592C21.1035 27.8156 21.2415 28.0464 21.4189 28.3438C21.7741 28.9387 22.2879 29.8016 22.9229 30.874C24.1926 33.0187 25.9485 36.004 27.8936 39.3662C30.7297 44.2688 33.8136 49.645 37.1123 53.8125C38.7559 55.889 40.3684 57.553 41.9268 58.6807C43.484 59.8075 44.8244 60.2832 45.9883 60.2832C46.7852 60.2832 47.7289 59.9493 48.8857 58.9834C50.0582 58.0043 51.2874 56.5055 52.5732 54.5137C55.1545 50.5152 57.6037 45.1165 60.165 39.4541C62.6735 33.9086 65.2953 28.0989 68.1406 23.6914C69.5678 21.4807 71.1406 19.4765 72.9043 18.0039C74.6838 16.5182 76.8112 15.4502 79.2627 15.4502C82.4391 15.4504 85.197 17.2004 87.4541 19.4219C89.7431 21.6748 91.8475 24.7322 93.7529 28.0801C97.5714 34.7895 100.888 43.2025 103.411 50.1524L98.335 51.9961C95.8265 45.0878 92.638 37.0387 89.0596 30.751C87.2665 27.6005 85.449 25.0254 83.666 23.2705C81.8514 21.4845 80.3866 20.8507 79.2627 20.8506C78.4658 20.8506 77.522 21.1836 76.3652 22.1494C75.1925 23.1286 73.9629 24.6279 72.6768 26.6201C70.0954 30.6186 67.6463 36.0173 65.085 41.6797C62.5765 47.2251 59.9557 53.035 57.1104 57.4424C55.6832 59.653 54.1102 61.6564 52.3467 63.1289C50.5671 64.6148 48.4399 65.6826 45.9883 65.6826C43.3108 65.6826 40.8778 64.5877 38.7607 63.0557C36.6447 61.5243 34.6813 59.4402 32.8789 57.1631C29.2855 52.6232 25.9946 46.8669 23.2197 42.0703C21.2858 38.7274 19.5393 35.7582 18.2764 33.625C17.645 32.5586 17.1344 31.7014 16.7822 31.1113C16.6062 30.8163 16.4693 30.5878 16.377 30.4336C16.3309 30.3566 16.296 30.298 16.2725 30.2588C15.483 29.0796 14.2015 27.2513 12.8994 25.5615C12.2386 24.704 11.5914 23.9057 11.0127 23.2559C10.4014 22.5695 9.97977 22.1784 9.76465 22.0234C8.86233 21.3737 8.23834 21.0028 7.68262 20.8223C7.22348 20.6731 6.76123 20.6371 6.11621 20.8496L4.42676 15.7207Z" fill="url(#paint0_linear_3973_14237)"/>
<path d="M4.42676 15.7207C8.19321 14.4797 10.9604 16.2297 12.9199 17.6406C13.6388 18.1583 14.3834 18.9212 15.0449 19.6641C15.7392 20.4436 16.4719 21.351 17.1768 22.2656C18.5871 24.0958 19.9584 26.0544 20.7969 27.3096L20.833 27.3643L20.8662 27.419V27.4199L20.8672 27.4209C20.8676 27.4216 20.8685 27.4227 20.8691 27.4238C20.8707 27.4265 20.873 27.4306 20.876 27.4356C20.8822 27.4459 20.8913 27.4615 20.9033 27.4815C20.9275 27.5217 20.9631 27.5813 21.0098 27.6592C21.1035 27.8156 21.2415 28.0464 21.4189 28.3438C21.7741 28.9387 22.2879 29.8016 22.9229 30.874C24.1926 33.0187 25.9485 36.004 27.8936 39.3662C30.7297 44.2688 33.8136 49.645 37.1123 53.8125C38.7559 55.889 40.3684 57.553 41.9268 58.6807C43.484 59.8075 44.8244 60.2832 45.9883 60.2832C46.7852 60.2832 47.7289 59.9493 48.8857 58.9834C50.0582 58.0043 51.2874 56.5055 52.5732 54.5137C55.1545 50.5152 57.6037 45.1165 60.165 39.4541C62.6735 33.9086 65.2953 28.0989 68.1406 23.6914C69.5678 21.4807 71.1406 19.4765 72.9043 18.0039C74.6838 16.5182 76.8112 15.4502 79.2627 15.4502C82.4391 15.4504 85.197 17.2004 87.4541 19.4219C89.7431 21.6748 91.8475 24.7322 93.7529 28.0801C97.5714 34.7895 100.888 43.2025 103.411 50.1524L98.335 51.9961C95.8265 45.0878 92.638 37.0387 89.0596 30.751C87.2665 27.6005 85.449 25.0254 83.666 23.2705C81.8514 21.4845 80.3866 20.8507 79.2627 20.8506C78.4658 20.8506 77.522 21.1836 76.3652 22.1494C75.1925 23.1286 73.9629 24.6279 72.6768 26.6201C70.0954 30.6186 67.6463 36.0173 65.085 41.6797C62.5765 47.2251 59.9557 53.035 57.1104 57.4424C55.6832 59.653 54.1102 61.6564 52.3467 63.1289C50.5671 64.6148 48.4399 65.6826 45.9883 65.6826C43.3108 65.6826 40.8778 64.5877 38.7607 63.0557C36.6447 61.5243 34.6813 59.4402 32.8789 57.1631C29.2855 52.6232 25.9946 46.8669 23.2197 42.0703C21.2858 38.7274 19.5393 35.7582 18.2764 33.625C17.645 32.5586 17.1344 31.7014 16.7822 31.1113C16.6062 30.8163 16.4693 30.5878 16.377 30.4336C16.3309 30.3566 16.296 30.298 16.2725 30.2588C15.483 29.0796 14.2015 27.2513 12.8994 25.5615C12.2386 24.704 11.5914 23.9057 11.0127 23.2559C10.4014 22.5695 9.97977 22.1784 9.76465 22.0234C8.86233 21.3737 8.23834 21.0028 7.68262 20.8223C7.22348 20.6731 6.76123 20.6371 6.11621 20.8496L4.42676 15.7207Z" fill="url(#paint1_radial_3973_14237)"/>
<path d="M64.3165 15.4524C66.7678 15.4525 68.8946 16.5205 70.674 18.0061C72.4376 19.4787 74.0114 21.4828 75.4386 23.6936C78.2839 28.1011 80.9048 33.9109 83.4132 39.4563C85.9746 45.1188 88.4237 50.5174 91.005 54.5159C92.2911 56.508 93.5209 58.0075 94.6935 58.9866C95.85 59.9521 96.7932 60.2853 97.59 60.2854C98.2375 60.2854 98.7824 60.0387 99.1027 59.3625C99.5176 58.4864 99.8687 56.2792 98.2267 51.6594L103.315 49.8508C105.131 54.9602 105.312 58.8685 103.983 61.675C102.558 64.6813 99.7827 65.6848 97.59 65.6848C95.1385 65.6847 93.012 64.6168 91.2326 63.1311C89.4689 61.6585 87.8951 59.6553 86.4679 57.4446C83.6226 53.0371 81.0018 47.2274 78.4933 41.6819C75.9319 36.0194 73.4828 30.6209 70.9015 26.6223C69.6154 24.6301 68.3857 23.1308 67.213 22.1516C66.0565 21.186 65.1134 20.8529 64.3165 20.8528C63.5196 20.8528 62.5759 21.1857 61.4191 22.1516C60.2464 23.1308 59.0167 24.6301 57.7306 26.6223C55.1493 30.6208 52.7002 36.0195 50.1388 41.6819C47.6304 47.2273 45.0095 53.0372 42.1642 57.4446C40.7371 59.6552 39.1641 61.6586 37.4005 63.1311C35.621 64.617 33.4938 65.6848 31.0421 65.6848C26.7153 65.6848 22.7886 63.0764 19.5392 59.8879C16.2185 56.6296 13.1694 52.3372 10.5802 48.0686C7.97851 43.7793 5.77546 39.4038 4.16908 35.9026C2.59635 32.4747 1.5103 29.6999 1.23061 28.6575C0.875224 27.3329 0.0122051 24.7292 0.000137042 22.3967C-0.00628358 21.1542 0.21109 19.7091 1.03627 18.3918C1.89648 17.0187 3.2362 16.0731 4.9308 15.5647L6.48256 20.7366C5.84229 20.9286 5.67404 21.1607 5.61244 21.259C5.51586 21.4134 5.3973 21.7339 5.40053 22.3684C5.40789 23.7914 5.94564 25.3915 6.44643 27.2581C6.59482 27.8112 7.49962 30.212 9.07729 33.6506C10.6215 37.0163 12.7295 41.1992 15.1974 45.2678C17.6778 49.3571 20.4571 53.2229 23.3214 56.0334C26.257 58.9139 28.8719 60.2854 31.0421 60.2854C31.8391 60.2854 32.7828 59.9524 33.9396 58.9866C35.1122 58.0075 36.341 56.5079 37.6271 54.5159C40.2084 50.5174 42.6575 45.1187 45.2189 39.4563C47.7274 33.9108 50.3491 28.1011 53.1945 23.6936C54.6217 21.4828 56.1945 19.4787 57.9581 18.0061C59.7377 16.5203 61.865 15.4524 64.3165 15.4524Z" fill="#2549FF"/>
<path d="M64.3165 15.4524C66.7678 15.4525 68.8946 16.5205 70.674 18.0061C72.4376 19.4787 74.0114 21.4828 75.4386 23.6936C78.2839 28.1011 80.9048 33.9109 83.4132 39.4563C85.9746 45.1188 88.4237 50.5174 91.005 54.5159C92.2911 56.508 93.5209 58.0075 94.6935 58.9866C95.85 59.9521 96.7932 60.2853 97.59 60.2854C98.2375 60.2854 98.7824 60.0387 99.1027 59.3625C99.5176 58.4864 99.8687 56.2792 98.2267 51.6594L103.315 49.8508C105.131 54.9602 105.312 58.8685 103.983 61.675C102.558 64.6813 99.7827 65.6848 97.59 65.6848C95.1385 65.6847 93.012 64.6168 91.2326 63.1311C89.4689 61.6585 87.8951 59.6553 86.4679 57.4446C83.6226 53.0371 81.0018 47.2274 78.4933 41.6819C75.9319 36.0194 73.4828 30.6209 70.9015 26.6223C69.6154 24.6301 68.3857 23.1308 67.213 22.1516C66.0565 21.186 65.1134 20.8529 64.3165 20.8528C63.5196 20.8528 62.5759 21.1857 61.4191 22.1516C60.2464 23.1308 59.0167 24.6301 57.7306 26.6223C55.1493 30.6208 52.7002 36.0195 50.1388 41.6819C47.6304 47.2273 45.0095 53.0372 42.1642 57.4446C40.7371 59.6552 39.1641 61.6586 37.4005 63.1311C35.621 64.617 33.4938 65.6848 31.0421 65.6848C26.7153 65.6848 22.7886 63.0764 19.5392 59.8879C16.2185 56.6296 13.1694 52.3372 10.5802 48.0686C7.97851 43.7793 5.77546 39.4038 4.16908 35.9026C2.59635 32.4747 1.5103 29.6999 1.23061 28.6575C0.875224 27.3329 0.0122051 24.7292 0.000137042 22.3967C-0.00628358 21.1542 0.21109 19.7091 1.03627 18.3918C1.89648 17.0187 3.2362 16.0731 4.9308 15.5647L6.48256 20.7366C5.84229 20.9286 5.67404 21.1607 5.61244 21.259C5.51586 21.4134 5.3973 21.7339 5.40053 22.3684C5.40789 23.7914 5.94564 25.3915 6.44643 27.2581C6.59482 27.8112 7.49962 30.212 9.07729 33.6506C10.6215 37.0163 12.7295 41.1992 15.1974 45.2678C17.6778 49.3571 20.4571 53.2229 23.3214 56.0334C26.257 58.9139 28.8719 60.2854 31.0421 60.2854C31.8391 60.2854 32.7828 59.9524 33.9396 58.9866C35.1122 58.0075 36.341 56.5079 37.6271 54.5159C40.2084 50.5174 42.6575 45.1187 45.2189 39.4563C47.7274 33.9108 50.3491 28.1011 53.1945 23.6936C54.6217 21.4828 56.1945 19.4787 57.9581 18.0061C59.7377 16.5203 61.865 15.4524 64.3165 15.4524Z" fill="url(#paint2_radial_3973_14237)"/>
<path d="M64.3165 15.4524C66.7678 15.4525 68.8946 16.5205 70.674 18.0061C72.4376 19.4787 74.0114 21.4828 75.4386 23.6936C78.2839 28.1011 80.9048 33.9109 83.4132 39.4563C85.9746 45.1188 88.4237 50.5174 91.005 54.5159C92.2911 56.508 93.5209 58.0075 94.6935 58.9866C95.85 59.9521 96.7932 60.2853 97.59 60.2854C98.2375 60.2854 98.7824 60.0387 99.1027 59.3625C99.5176 58.4864 99.8687 56.2792 98.2267 51.6594L103.315 49.8508C105.131 54.9602 105.312 58.8685 103.983 61.675C102.558 64.6813 99.7827 65.6848 97.59 65.6848C95.1385 65.6847 93.012 64.6168 91.2326 63.1311C89.4689 61.6585 87.8951 59.6553 86.4679 57.4446C83.6226 53.0371 81.0018 47.2274 78.4933 41.6819C75.9319 36.0194 73.4828 30.6209 70.9015 26.6223C69.6154 24.6301 68.3857 23.1308 67.213 22.1516C66.0565 21.186 65.1134 20.8529 64.3165 20.8528C63.5196 20.8528 62.5759 21.1857 61.4191 22.1516C60.2464 23.1308 59.0167 24.6301 57.7306 26.6223C55.1493 30.6208 52.7002 36.0195 50.1388 41.6819C47.6304 47.2273 45.0095 53.0372 42.1642 57.4446C40.7371 59.6552 39.1641 61.6586 37.4005 63.1311C35.621 64.617 33.4938 65.6848 31.0421 65.6848C26.7153 65.6848 22.7886 63.0764 19.5392 59.8879C16.2185 56.6296 13.1694 52.3372 10.5802 48.0686C7.97851 43.7793 5.77546 39.4038 4.16908 35.9026C2.59635 32.4747 1.5103 29.6999 1.23061 28.6575C0.875224 27.3329 0.0122051 24.7292 0.000137042 22.3967C-0.00628358 21.1542 0.21109 19.7091 1.03627 18.3918C1.89648 17.0187 3.2362 16.0731 4.9308 15.5647L6.48256 20.7366C5.84229 20.9286 5.67404 21.1607 5.61244 21.259C5.51586 21.4134 5.3973 21.7339 5.40053 22.3684C5.40789 23.7914 5.94564 25.3915 6.44643 27.2581C6.59482 27.8112 7.49962 30.212 9.07729 33.6506C10.6215 37.0163 12.7295 41.1992 15.1974 45.2678C17.6778 49.3571 20.4571 53.2229 23.3214 56.0334C26.257 58.9139 28.8719 60.2854 31.0421 60.2854C31.8391 60.2854 32.7828 59.9524 33.9396 58.9866C35.1122 58.0075 36.341 56.5079 37.6271 54.5159C40.2084 50.5174 42.6575 45.1187 45.2189 39.4563C47.7274 33.9108 50.3491 28.1011 53.1945 23.6936C54.6217 21.4828 56.1945 19.4787 57.9581 18.0061C59.7377 16.5203 61.865 15.4524 64.3165 15.4524Z" fill="url(#paint3_radial_3973_14237)"/>
<path d="M34.3613 50.0146C35.2611 51.3518 36.1773 52.6312 37.1123 53.8125C38.7559 55.889 40.3684 57.5529 41.9268 58.6807C42.1379 58.8334 42.3456 58.9733 42.5488 59.1025L39.9668 63.8564C39.5543 63.6073 39.1521 63.3389 38.7607 63.0557C36.6447 61.5243 34.6813 59.4402 32.8789 57.1631C32.4076 56.5676 31.9419 55.9508 31.4814 55.3184L34.3613 50.0146Z" fill="#BF4DF3"/>
<path d="M34.3613 50.0146C35.2611 51.3518 36.1773 52.6312 37.1123 53.8125C38.7559 55.889 40.3684 57.5529 41.9268 58.6807C42.1379 58.8334 42.3456 58.9733 42.5488 59.1025L39.9668 63.8564C39.5543 63.6073 39.1521 63.3389 38.7607 63.0557C36.6447 61.5243 34.6813 59.4402 32.8789 57.1631C32.4076 56.5676 31.9419 55.9508 31.4814 55.3184L34.3613 50.0146Z" fill="url(#paint4_linear_3973_14237)"/>
<path d="M34.3613 50.0146C35.2611 51.3518 36.1773 52.6312 37.1123 53.8125C38.7559 55.889 40.3684 57.5529 41.9268 58.6807C42.1379 58.8334 42.3456 58.9733 42.5488 59.1025L39.9668 63.8564C39.5543 63.6073 39.1521 63.3389 38.7607 63.0557C36.6447 61.5243 34.6813 59.4402 32.8789 57.1631C32.4076 56.5676 31.9419 55.9508 31.4814 55.3184L34.3613 50.0146Z" fill="url(#paint5_radial_3973_14237)"/>
<path d="M130.245 60V30.0972H137.901V60H130.245ZM129.887 25.1334V17.4782H138.259V25.1334H129.887ZM147.007 60V30.0972H154.423V36.4964C156.815 31.6522 161.121 29.2001 167.162 29.2001C175.594 29.2001 180.08 33.9846 180.08 43.1348V60H172.484V44.2711C172.484 38.171 169.733 35.1807 164.231 35.1807C158.311 35.1807 154.662 39.0083 154.662 45.3476V60H147.007ZM197.465 60L183.769 30.0972H192.022L200.515 49.9527C200.993 51.2086 201.352 52.4047 201.651 53.541H201.771C202.07 52.4047 202.428 51.2086 202.907 49.9527L211.399 30.0972H219.652L205.957 60H197.465ZM224.86 60V30.0972H232.515V60H224.86ZM224.501 25.1334V17.4782H232.874V25.1334H224.501ZM256.513 60.8971C248.021 60.8971 242.22 58.0862 239.349 52.8831L244.612 49.9527C246.705 53.541 250.772 55.5744 256.992 55.5744C261.836 55.5744 264.168 54.1391 264.168 51.6272C264.168 49.534 262.912 48.7566 259.503 48.3379L250.652 47.2614C244.133 46.4241 240.784 43.6133 240.784 38.5896C240.784 32.8483 246.167 29.2001 255.377 29.2001C263.152 29.2001 268.773 31.6522 271.166 35.8984L266.261 39.0083C263.989 36.0778 260.52 34.463 254.898 34.463C250.174 34.463 247.901 35.7189 247.901 38.171C247.901 40.1446 249.396 41.1014 252.387 41.4603L261.656 42.5368C268.414 43.4339 271.225 46.1849 271.225 51.089C271.225 57.0097 266.381 60.8971 256.513 60.8971ZM281.223 72.3199C280.086 72.3199 278.651 72.2003 277.156 71.9611V65.9208C278.352 66.16 279.369 66.2198 280.385 66.2198C284.572 66.2198 287.323 64.4854 288.758 61.1961L289.237 59.8804L274.704 30.0972H283.256L292.107 50.2517C292.586 51.5076 292.825 52.4047 293.064 53.3616H293.184C293.423 52.5243 293.662 51.6272 294.141 50.3115L302.454 30.0972H310.527L296.473 61.6746C293.124 69.3895 288.519 72.3199 281.223 72.3199ZM315.736 60V30.0972H323.152V36.4964C325.544 31.6522 329.85 29.2001 335.891 29.2001C344.323 29.2001 348.809 33.9846 348.809 43.1348V60H341.213V44.2711C341.213 38.171 338.462 35.1807 332.96 35.1807C327.039 35.1807 323.391 39.0083 323.391 45.3476V60H315.736ZM373.577 60.8971C362.573 60.8971 355.815 55.1558 355.815 45.3476C355.815 35.1807 362.633 29.2001 373.218 29.2001C383.923 29.2001 390.203 34.6424 390.203 44.2113V46.9624H363.29C363.589 52.0459 367.477 55.2156 373.816 55.2156C378.421 55.2156 381.89 53.4214 383.744 50.0125L389.724 52.7635C386.734 58.0264 381.172 60.8971 373.577 60.8971ZM363.29 42.1181H382.548V41.8191C382.548 36.8552 378.66 34.1042 373.098 34.1042C367.238 34.1042 363.589 37.1543 363.29 42.1181Z" fill="black"/>
<defs>
<linearGradient id="paint0_linear_3973_14237" x1="101.708" y1="51.3545" x2="77.657" y2="17.9638" gradientUnits="userSpaceOnUse">
<stop offset="0.371479" stop-color="#BF4DF3"/>
<stop offset="1" stop-color="#BF4DF3" stop-opacity="0"/>
</linearGradient>
<radialGradient id="paint1_radial_3973_14237" cx="0" cy="0" r="1" gradientTransform="matrix(34.0912 43.1977 -91.7772 72.4295 7.60649 19.5983)" gradientUnits="userSpaceOnUse">
<stop offset="0.163111" stop-color="#BF4DF3"/>
<stop offset="0.982239" stop-color="#BF4DF3" stop-opacity="0"/>
</radialGradient>
<radialGradient id="paint2_radial_3973_14237" cx="0" cy="0" r="1" gradientUnits="userSpaceOnUse" gradientTransform="translate(5.73586 19.1313) rotate(81.8999) scale(31.6849 32.77)">
<stop offset="0.107357" stop-color="#BF4DF3"/>
<stop offset="1" stop-color="#BF4DF3" stop-opacity="0"/>
</radialGradient>
<radialGradient id="paint3_radial_3973_14237" cx="0" cy="0" r="1" gradientTransform="matrix(-11.3397 6.31068 -13.968 -25.0991 104.04 53.6893)" gradientUnits="userSpaceOnUse">
<stop offset="0.319606" stop-color="#BF4DF3"/>
<stop offset="1" stop-color="#BF4DF3" stop-opacity="0.0588235"/>
</radialGradient>
<linearGradient id="paint4_linear_3973_14237" x1="101.708" y1="51.3545" x2="77.657" y2="17.9638" gradientUnits="userSpaceOnUse">
<stop offset="0.371479" stop-color="#BF4DF3"/>
<stop offset="1" stop-color="#BF4DF3" stop-opacity="0"/>
</linearGradient>
<radialGradient id="paint5_radial_3973_14237" cx="0" cy="0" r="1" gradientTransform="matrix(34.0912 43.1977 -91.7772 72.4295 7.60649 19.5983)" gradientUnits="userSpaceOnUse">
<stop offset="0.163111" stop-color="#BF4DF3"/>
<stop offset="0.982239" stop-color="#BF4DF3" stop-opacity="0"/>
</radialGradient>
</defs>
</svg>
