<svg width="391" height="75" viewBox="0 0 391 75" fill="none" xmlns="http://www.w3.org/2000/svg">
<path d="M4.43164 15.7233C8.20257 14.4808 10.973 16.2328 12.9349 17.6455C13.6546 18.1637 14.4001 18.9276 15.0624 19.6713C15.7575 20.4518 16.4911 21.3602 17.1968 22.276C18.6088 24.1083 19.9817 26.0693 20.8212 27.3259L20.8574 27.3807L20.8906 27.4354V27.4364L20.8916 27.4374C20.892 27.4381 20.8929 27.4392 20.8936 27.4403C20.8951 27.443 20.8974 27.4471 20.9004 27.4521C20.9066 27.4624 20.9158 27.478 20.9278 27.498C20.9519 27.5383 20.9876 27.5979 21.0343 27.6759C21.1281 27.8326 21.2663 28.0636 21.444 28.3613C21.7995 28.957 22.314 29.8209 22.9497 30.8946C24.221 33.0418 25.979 36.0307 27.9263 39.3969C30.7659 44.3053 33.8534 49.6879 37.156 53.8603C38.8016 55.9393 40.416 57.6052 41.9762 58.7343C43.5352 59.8625 44.8773 60.3387 46.0425 60.3387C46.8404 60.3387 47.7853 60.0044 48.9434 59.0374C50.1173 58.0571 51.3479 56.5565 52.6353 54.5623C55.2197 50.5591 57.6717 45.154 60.2361 39.4849C62.7476 33.9328 65.3724 28.1162 68.2212 23.7035C69.6501 21.4901 71.2248 19.4836 72.9905 18.0092C74.7721 16.5217 76.902 15.4525 79.3565 15.4525C82.5367 15.4526 85.2978 17.2047 87.5576 19.4289C89.8493 21.6845 91.9563 24.7455 93.8639 28.0973C97.6869 34.8148 101.007 43.2377 103.534 50.1958L98.4514 52.0418C95.94 45.1253 92.7477 37.0666 89.165 30.7714C87.3698 27.6171 85.5501 25.039 83.765 23.2821C81.9482 21.494 80.4817 20.8594 79.3565 20.8593C78.5586 20.8593 77.6137 21.1926 76.4556 22.1596C75.2815 23.14 74.0504 24.641 72.7627 26.6357C70.1783 30.6389 67.7263 36.044 65.1619 41.7131C62.6505 47.2651 60.0265 53.0819 57.1778 57.4945C55.749 59.7078 54.1741 61.7135 52.4085 63.1878C50.6268 64.6755 48.4971 65.7446 46.0425 65.7446C43.3619 65.7445 40.926 64.6484 38.8064 63.1145C36.6878 61.5813 34.7222 59.4948 32.9176 57.2149C29.3199 52.6697 26.0251 46.9065 23.2469 42.1042C21.3108 38.7574 19.5622 35.7846 18.2977 33.6489C17.6656 32.5812 17.1544 31.723 16.8018 31.1322C16.6255 30.8369 16.4885 30.6081 16.396 30.4537C16.3499 30.3766 16.3149 30.3179 16.2914 30.2786C15.5011 29.0981 14.218 27.2675 12.9144 25.5758C12.2528 24.7172 11.6048 23.918 11.0254 23.2674C10.4134 22.5802 9.99124 22.1886 9.77587 22.0335C8.87248 21.383 8.24775 21.0116 7.69137 20.8309C7.23169 20.6816 6.76889 20.6455 6.1231 20.8583L4.43164 15.7233Z" fill="#BF4DF3"/>
<path d="M4.43164 15.7233C8.20257 14.4808 10.973 16.2328 12.9349 17.6455C13.6546 18.1637 14.4001 18.9276 15.0624 19.6713C15.7575 20.4518 16.4911 21.3602 17.1968 22.276C18.6088 24.1083 19.9817 26.0693 20.8212 27.3259L20.8574 27.3807L20.8906 27.4354V27.4364L20.8916 27.4374C20.892 27.4381 20.8929 27.4392 20.8936 27.4403C20.8951 27.443 20.8974 27.4471 20.9004 27.4521C20.9066 27.4624 20.9158 27.478 20.9278 27.498C20.9519 27.5383 20.9876 27.5979 21.0343 27.6759C21.1281 27.8326 21.2663 28.0636 21.444 28.3613C21.7995 28.957 22.314 29.8209 22.9497 30.8946C24.221 33.0418 25.979 36.0307 27.9263 39.3969C30.7659 44.3053 33.8534 49.6879 37.156 53.8603C38.8016 55.9393 40.416 57.6052 41.9762 58.7343C43.5352 59.8625 44.8773 60.3387 46.0425 60.3387C46.8404 60.3387 47.7853 60.0044 48.9434 59.0374C50.1173 58.0571 51.3479 56.5565 52.6353 54.5623C55.2197 50.5591 57.6717 45.154 60.2361 39.4849C62.7476 33.9328 65.3724 28.1162 68.2212 23.7035C69.6501 21.4901 71.2248 19.4836 72.9905 18.0092C74.7721 16.5217 76.902 15.4525 79.3565 15.4525C82.5367 15.4526 85.2978 17.2047 87.5576 19.4289C89.8493 21.6845 91.9563 24.7455 93.8639 28.0973C97.6869 34.8148 101.007 43.2377 103.534 50.1958L98.4514 52.0418C95.94 45.1253 92.7477 37.0666 89.165 30.7714C87.3698 27.6171 85.5501 25.039 83.765 23.2821C81.9482 21.494 80.4817 20.8594 79.3565 20.8593C78.5586 20.8593 77.6137 21.1926 76.4556 22.1596C75.2815 23.14 74.0504 24.641 72.7627 26.6357C70.1783 30.6389 67.7263 36.044 65.1619 41.7131C62.6505 47.2651 60.0265 53.0819 57.1778 57.4945C55.749 59.7078 54.1741 61.7135 52.4085 63.1878C50.6268 64.6755 48.4971 65.7446 46.0425 65.7446C43.3619 65.7445 40.926 64.6484 38.8064 63.1145C36.6878 61.5813 34.7222 59.4948 32.9176 57.2149C29.3199 52.6697 26.0251 46.9065 23.2469 42.1042C21.3108 38.7574 19.5622 35.7846 18.2977 33.6489C17.6656 32.5812 17.1544 31.723 16.8018 31.1322C16.6255 30.8369 16.4885 30.6081 16.396 30.4537C16.3499 30.3766 16.3149 30.3179 16.2914 30.2786C15.5011 29.0981 14.218 27.2675 12.9144 25.5758C12.2528 24.7172 11.6048 23.918 11.0254 23.2674C10.4134 22.5802 9.99124 22.1886 9.77587 22.0335C8.87248 21.383 8.24775 21.0116 7.69137 20.8309C7.23169 20.6816 6.76889 20.6455 6.1231 20.8583L4.43164 15.7233Z" fill="url(#paint0_linear_3973_14267)"/>
<path d="M4.43164 15.7233C8.20257 14.4808 10.973 16.2328 12.9349 17.6455C13.6546 18.1637 14.4001 18.9276 15.0624 19.6713C15.7575 20.4518 16.4911 21.3602 17.1968 22.276C18.6088 24.1083 19.9817 26.0693 20.8212 27.3259L20.8574 27.3807L20.8906 27.4354V27.4364L20.8916 27.4374C20.892 27.4381 20.8929 27.4392 20.8936 27.4403C20.8951 27.443 20.8974 27.4471 20.9004 27.4521C20.9066 27.4624 20.9158 27.478 20.9278 27.498C20.9519 27.5383 20.9876 27.5979 21.0343 27.6759C21.1281 27.8326 21.2663 28.0636 21.444 28.3613C21.7995 28.957 22.314 29.8209 22.9497 30.8946C24.221 33.0418 25.979 36.0307 27.9263 39.3969C30.7659 44.3053 33.8534 49.6879 37.156 53.8603C38.8016 55.9393 40.416 57.6052 41.9762 58.7343C43.5352 59.8625 44.8773 60.3387 46.0425 60.3387C46.8404 60.3387 47.7853 60.0044 48.9434 59.0374C50.1173 58.0571 51.3479 56.5565 52.6353 54.5623C55.2197 50.5591 57.6717 45.154 60.2361 39.4849C62.7476 33.9328 65.3724 28.1162 68.2212 23.7035C69.6501 21.4901 71.2248 19.4836 72.9905 18.0092C74.7721 16.5217 76.902 15.4525 79.3565 15.4525C82.5367 15.4526 85.2978 17.2047 87.5576 19.4289C89.8493 21.6845 91.9563 24.7455 93.8639 28.0973C97.6869 34.8148 101.007 43.2377 103.534 50.1958L98.4514 52.0418C95.94 45.1253 92.7477 37.0666 89.165 30.7714C87.3698 27.6171 85.5501 25.039 83.765 23.2821C81.9482 21.494 80.4817 20.8594 79.3565 20.8593C78.5586 20.8593 77.6137 21.1926 76.4556 22.1596C75.2815 23.14 74.0504 24.641 72.7627 26.6357C70.1783 30.6389 67.7263 36.044 65.1619 41.7131C62.6505 47.2651 60.0265 53.0819 57.1778 57.4945C55.749 59.7078 54.1741 61.7135 52.4085 63.1878C50.6268 64.6755 48.4971 65.7446 46.0425 65.7446C43.3619 65.7445 40.926 64.6484 38.8064 63.1145C36.6878 61.5813 34.7222 59.4948 32.9176 57.2149C29.3199 52.6697 26.0251 46.9065 23.2469 42.1042C21.3108 38.7574 19.5622 35.7846 18.2977 33.6489C17.6656 32.5812 17.1544 31.723 16.8018 31.1322C16.6255 30.8369 16.4885 30.6081 16.396 30.4537C16.3499 30.3766 16.3149 30.3179 16.2914 30.2786C15.5011 29.0981 14.218 27.2675 12.9144 25.5758C12.2528 24.7172 11.6048 23.918 11.0254 23.2674C10.4134 22.5802 9.99124 22.1886 9.77587 22.0335C8.87248 21.383 8.24775 21.0116 7.69137 20.8309C7.23169 20.6816 6.76889 20.6455 6.1231 20.8583L4.43164 15.7233Z" fill="url(#paint1_radial_3973_14267)"/>
<path d="M64.3929 15.4546C66.8472 15.4547 68.9764 16.5239 70.7579 18.0113C72.5237 19.4857 74.0993 21.4922 75.5282 23.7056C78.3769 28.1183 81.0009 33.935 83.5123 39.487C86.0767 45.1562 88.5287 50.5612 91.1131 54.5645C92.4007 56.559 93.632 58.0602 94.806 59.0405C95.9638 60.0071 96.9082 60.3408 97.7059 60.3409C98.3542 60.3409 98.8997 60.0938 99.2204 59.4169C99.6358 58.5397 99.9874 56.3299 98.3434 51.7046L103.437 49.8939C105.256 55.0094 105.437 58.9223 104.106 61.7322C102.68 64.742 99.9012 65.7467 97.7059 65.7467C95.2516 65.7466 93.1225 64.6774 91.3409 63.1899C89.5752 61.7156 87.9995 59.71 86.5706 57.4967C83.7219 53.084 81.098 47.2673 78.5865 41.7152C76.0221 36.046 73.5701 30.6411 70.9857 26.6378C69.6981 24.6432 68.467 23.1421 67.2929 22.1618C66.1349 21.195 65.1907 20.8615 64.3929 20.8614C63.5951 20.8614 62.6502 21.1947 61.492 22.1618C60.318 23.1421 59.0868 24.6432 57.7992 26.6378C55.2148 30.6411 52.7628 36.0461 50.1984 41.7152C47.6869 47.2673 45.063 53.084 42.2143 57.4967C40.7855 59.7099 39.2106 61.7156 37.445 63.1899C35.6633 64.6776 33.5335 65.7467 31.079 65.7467C26.747 65.7466 22.8157 63.1351 19.5624 59.9429C16.2378 56.6807 13.185 52.3832 10.5928 48.1095C7.98799 43.8152 5.78232 39.4344 4.17403 35.9291C2.59944 32.4972 1.51209 29.7191 1.23207 28.6754C0.876264 27.3492 0.0122196 24.7424 0.000137205 22.4072C-0.00629105 21.1632 0.211341 19.7163 1.0375 18.3975C1.89873 17.0228 3.24004 16.076 4.93666 15.567L6.49026 20.745C5.84923 20.9374 5.68078 21.1697 5.61911 21.2681C5.52241 21.4227 5.40371 21.7435 5.40694 22.3788C5.41431 23.8035 5.9527 25.4055 6.45408 27.2743C6.60266 27.828 7.50853 30.2318 9.08807 33.6745C10.6341 37.0441 12.7447 41.232 15.2155 45.3054C17.6988 49.3996 20.4814 53.27 23.3491 56.0839C26.2882 58.9677 28.9062 60.3408 31.079 60.3409C31.8769 60.3409 32.8218 60.0075 33.9799 59.0405C35.1539 58.0602 36.3842 56.5589 37.6718 54.5645C40.2562 50.5612 42.7082 45.1562 45.2726 39.487C47.7841 33.9349 50.4089 28.1183 53.2577 23.7056C54.6866 21.4922 56.2612 19.4857 58.027 18.0113C59.8086 16.5238 61.9385 15.4546 64.3929 15.4546Z" fill="#516EFF"/>
<path d="M64.3929 15.4546C66.8472 15.4547 68.9764 16.5239 70.7579 18.0113C72.5237 19.4857 74.0993 21.4922 75.5282 23.7056C78.3769 28.1183 81.0009 33.935 83.5123 39.487C86.0767 45.1562 88.5287 50.5612 91.1131 54.5645C92.4007 56.559 93.632 58.0602 94.806 59.0405C95.9638 60.0071 96.9082 60.3408 97.7059 60.3409C98.3542 60.3409 98.8997 60.0938 99.2204 59.4169C99.6358 58.5397 99.9874 56.3299 98.3434 51.7046L103.437 49.8939C105.256 55.0094 105.437 58.9223 104.106 61.7322C102.68 64.742 99.9012 65.7467 97.7059 65.7467C95.2516 65.7466 93.1225 64.6774 91.3409 63.1899C89.5752 61.7156 87.9995 59.71 86.5706 57.4967C83.7219 53.084 81.098 47.2673 78.5865 41.7152C76.0221 36.046 73.5701 30.6411 70.9857 26.6378C69.6981 24.6432 68.467 23.1421 67.2929 22.1618C66.1349 21.195 65.1907 20.8615 64.3929 20.8614C63.5951 20.8614 62.6502 21.1947 61.492 22.1618C60.318 23.1421 59.0868 24.6432 57.7992 26.6378C55.2148 30.6411 52.7628 36.0461 50.1984 41.7152C47.6869 47.2673 45.063 53.084 42.2143 57.4967C40.7855 59.7099 39.2106 61.7156 37.445 63.1899C35.6633 64.6776 33.5335 65.7467 31.079 65.7467C26.747 65.7466 22.8157 63.1351 19.5624 59.9429C16.2378 56.6807 13.185 52.3832 10.5928 48.1095C7.98799 43.8152 5.78232 39.4344 4.17403 35.9291C2.59944 32.4972 1.51209 29.7191 1.23207 28.6754C0.876264 27.3492 0.0122196 24.7424 0.000137205 22.4072C-0.00629105 21.1632 0.211341 19.7163 1.0375 18.3975C1.89873 17.0228 3.24004 16.076 4.93666 15.567L6.49026 20.745C5.84923 20.9374 5.68078 21.1697 5.61911 21.2681C5.52241 21.4227 5.40371 21.7435 5.40694 22.3788C5.41431 23.8035 5.9527 25.4055 6.45408 27.2743C6.60266 27.828 7.50853 30.2318 9.08807 33.6745C10.6341 37.0441 12.7447 41.232 15.2155 45.3054C17.6988 49.3996 20.4814 53.27 23.3491 56.0839C26.2882 58.9677 28.9062 60.3408 31.079 60.3409C31.8769 60.3409 32.8218 60.0075 33.9799 59.0405C35.1539 58.0602 36.3842 56.5589 37.6718 54.5645C40.2562 50.5612 42.7082 45.1562 45.2726 39.487C47.7841 33.9349 50.4089 28.1183 53.2577 23.7056C54.6866 21.4922 56.2612 19.4857 58.027 18.0113C59.8086 16.5238 61.9385 15.4546 64.3929 15.4546Z" fill="url(#paint2_radial_3973_14267)"/>
<path d="M64.3929 15.4546C66.8472 15.4547 68.9764 16.5239 70.7579 18.0113C72.5237 19.4857 74.0993 21.4922 75.5282 23.7056C78.3769 28.1183 81.0009 33.935 83.5123 39.487C86.0767 45.1562 88.5287 50.5612 91.1131 54.5645C92.4007 56.559 93.632 58.0602 94.806 59.0405C95.9638 60.0071 96.9082 60.3408 97.7059 60.3409C98.3542 60.3409 98.8997 60.0938 99.2204 59.4169C99.6358 58.5397 99.9874 56.3299 98.3434 51.7046L103.437 49.8939C105.256 55.0094 105.437 58.9223 104.106 61.7322C102.68 64.742 99.9012 65.7467 97.7059 65.7467C95.2516 65.7466 93.1225 64.6774 91.3409 63.1899C89.5752 61.7156 87.9995 59.71 86.5706 57.4967C83.7219 53.084 81.098 47.2673 78.5865 41.7152C76.0221 36.046 73.5701 30.6411 70.9857 26.6378C69.6981 24.6432 68.467 23.1421 67.2929 22.1618C66.1349 21.195 65.1907 20.8615 64.3929 20.8614C63.5951 20.8614 62.6502 21.1947 61.492 22.1618C60.318 23.1421 59.0868 24.6432 57.7992 26.6378C55.2148 30.6411 52.7628 36.0461 50.1984 41.7152C47.6869 47.2673 45.063 53.084 42.2143 57.4967C40.7855 59.7099 39.2106 61.7156 37.445 63.1899C35.6633 64.6776 33.5335 65.7467 31.079 65.7467C26.747 65.7466 22.8157 63.1351 19.5624 59.9429C16.2378 56.6807 13.185 52.3832 10.5928 48.1095C7.98799 43.8152 5.78232 39.4344 4.17403 35.9291C2.59944 32.4972 1.51209 29.7191 1.23207 28.6754C0.876264 27.3492 0.0122196 24.7424 0.000137205 22.4072C-0.00629105 21.1632 0.211341 19.7163 1.0375 18.3975C1.89873 17.0228 3.24004 16.076 4.93666 15.567L6.49026 20.745C5.84923 20.9374 5.68078 21.1697 5.61911 21.2681C5.52241 21.4227 5.40371 21.7435 5.40694 22.3788C5.41431 23.8035 5.9527 25.4055 6.45408 27.2743C6.60266 27.828 7.50853 30.2318 9.08807 33.6745C10.6341 37.0441 12.7447 41.232 15.2155 45.3054C17.6988 49.3996 20.4814 53.27 23.3491 56.0839C26.2882 58.9677 28.9062 60.3408 31.079 60.3409C31.8769 60.3409 32.8218 60.0075 33.9799 59.0405C35.1539 58.0602 36.3842 56.5589 37.6718 54.5645C40.2562 50.5612 42.7082 45.1562 45.2726 39.487C47.7841 33.9349 50.4089 28.1183 53.2577 23.7056C54.6866 21.4922 56.2612 19.4857 58.027 18.0113C59.8086 16.5238 61.9385 15.4546 64.3929 15.4546Z" fill="url(#paint3_radial_3973_14267)"/>
<path d="M34.4019 50.058C35.3027 51.3967 36.22 52.6777 37.1561 53.8603C38.8017 55.9393 40.4161 57.6052 41.9763 58.7343C42.1876 58.8872 42.3956 59.0272 42.5991 59.1567L40.014 63.9162C39.601 63.6667 39.1984 63.3981 38.8065 63.1145C36.6879 61.5813 34.7223 59.4948 32.9177 57.2149C32.4458 56.6187 31.9796 56.0012 31.5186 55.368L34.4019 50.058Z" fill="#BF4DF3"/>
<path d="M34.4019 50.058C35.3027 51.3967 36.22 52.6777 37.1561 53.8603C38.8017 55.9393 40.4161 57.6052 41.9763 58.7343C42.1876 58.8872 42.3956 59.0272 42.5991 59.1567L40.014 63.9162C39.601 63.6667 39.1984 63.3981 38.8065 63.1145C36.6879 61.5813 34.7223 59.4948 32.9177 57.2149C32.4458 56.6187 31.9796 56.0012 31.5186 55.368L34.4019 50.058Z" fill="url(#paint4_linear_3973_14267)"/>
<path d="M34.4019 50.058C35.3027 51.3967 36.22 52.6777 37.1561 53.8603C38.8017 55.9393 40.4161 57.6052 41.9763 58.7343C42.1876 58.8872 42.3956 59.0272 42.5991 59.1567L40.014 63.9162C39.601 63.6667 39.1984 63.3981 38.8065 63.1145C36.6879 61.5813 34.7223 59.4948 32.9177 57.2149C32.4458 56.6187 31.9796 56.0012 31.5186 55.368L34.4019 50.058Z" fill="url(#paint5_radial_3973_14267)"/>
<path d="M130.245 60V30.0972H137.901V60H130.245ZM129.887 25.1334V17.4782H138.259V25.1334H129.887ZM147.007 60V30.0972H154.423V36.4964C156.815 31.6522 161.121 29.2001 167.162 29.2001C175.594 29.2001 180.08 33.9846 180.08 43.1348V60H172.484V44.2711C172.484 38.171 169.733 35.1807 164.231 35.1807C158.311 35.1807 154.662 39.0083 154.662 45.3476V60H147.007ZM197.465 60L183.769 30.0972H192.022L200.515 49.9527C200.993 51.2086 201.352 52.4047 201.651 53.541H201.771C202.07 52.4047 202.428 51.2086 202.907 49.9527L211.399 30.0972H219.652L205.957 60H197.465ZM224.86 60V30.0972H232.515V60H224.86ZM224.501 25.1334V17.4782H232.874V25.1334H224.501ZM256.513 60.8971C248.021 60.8971 242.22 58.0862 239.349 52.8831L244.612 49.9527C246.705 53.541 250.772 55.5744 256.992 55.5744C261.836 55.5744 264.168 54.1391 264.168 51.6272C264.168 49.534 262.912 48.7566 259.503 48.3379L250.652 47.2614C244.133 46.4241 240.784 43.6133 240.784 38.5896C240.784 32.8483 246.167 29.2001 255.377 29.2001C263.152 29.2001 268.773 31.6522 271.166 35.8984L266.261 39.0083C263.989 36.0778 260.52 34.463 254.898 34.463C250.174 34.463 247.901 35.7189 247.901 38.171C247.901 40.1446 249.396 41.1014 252.387 41.4603L261.656 42.5368C268.414 43.4339 271.225 46.1849 271.225 51.089C271.225 57.0097 266.381 60.8971 256.513 60.8971ZM281.223 72.3199C280.086 72.3199 278.651 72.2003 277.156 71.9611V65.9208C278.352 66.16 279.369 66.2198 280.385 66.2198C284.572 66.2198 287.323 64.4854 288.758 61.1961L289.237 59.8804L274.704 30.0972H283.256L292.107 50.2517C292.586 51.5076 292.825 52.4047 293.064 53.3616H293.184C293.423 52.5243 293.662 51.6272 294.141 50.3115L302.454 30.0972H310.527L296.473 61.6746C293.124 69.3895 288.519 72.3199 281.223 72.3199ZM315.736 60V30.0972H323.152V36.4964C325.544 31.6522 329.85 29.2001 335.891 29.2001C344.323 29.2001 348.809 33.9846 348.809 43.1348V60H341.213V44.2711C341.213 38.171 338.462 35.1807 332.96 35.1807C327.039 35.1807 323.391 39.0083 323.391 45.3476V60H315.736ZM373.577 60.8971C362.573 60.8971 355.815 55.1558 355.815 45.3476C355.815 35.1807 362.633 29.2001 373.218 29.2001C383.923 29.2001 390.203 34.6424 390.203 44.2113V46.9624H363.29C363.589 52.0459 367.477 55.2156 373.816 55.2156C378.421 55.2156 381.89 53.4214 383.744 50.0125L389.724 52.7635C386.734 58.0264 381.172 60.8971 373.577 60.8971ZM363.29 42.1181H382.548V41.8191C382.548 36.8552 378.66 34.1042 373.098 34.1042C367.238 34.1042 363.589 37.1543 363.29 42.1181Z" fill="white"/>
<defs>
<linearGradient id="paint0_linear_3973_14267" x1="101.828" y1="51.3994" x2="77.7489" y2="17.969" gradientUnits="userSpaceOnUse">
<stop offset="0.371479" stop-color="#BF4DF3"/>
<stop offset="1" stop-color="#BF4DF3" stop-opacity="0"/>
</linearGradient>
<radialGradient id="paint1_radial_3973_14267" cx="0" cy="0" r="1" gradientUnits="userSpaceOnUse" gradientTransform="translate(7.61515 19.6055) rotate(51.7198) scale(55.095 117.054)">
<stop offset="0.163111" stop-color="#BF4DF3"/>
<stop offset="0.982239" stop-color="#BF4DF3" stop-opacity="0"/>
</radialGradient>
<radialGradient id="paint2_radial_3973_14267" cx="0" cy="0" r="1" gradientUnits="userSpaceOnUse" gradientTransform="translate(5.74267 19.1378) rotate(81.8999) scale(31.7225 32.8089)">
<stop offset="0.107357" stop-color="#BF4DF3"/>
<stop offset="1" stop-color="#BF4DF3" stop-opacity="0"/>
</radialGradient>
<radialGradient id="paint3_radial_3973_14267" cx="0" cy="0" r="1" gradientTransform="matrix(-11.3532 6.31817 -13.9846 -25.129 104.164 53.737)" gradientUnits="userSpaceOnUse">
<stop offset="0.319606" stop-color="#BF4DF3"/>
<stop offset="1" stop-color="#BF4DF3" stop-opacity="0.0588235"/>
</radialGradient>
<linearGradient id="paint4_linear_3973_14267" x1="101.828" y1="51.3994" x2="77.749" y2="17.969" gradientUnits="userSpaceOnUse">
<stop offset="0.371479" stop-color="#BF4DF3"/>
<stop offset="1" stop-color="#BF4DF3" stop-opacity="0"/>
</linearGradient>
<radialGradient id="paint5_radial_3973_14267" cx="0" cy="0" r="1" gradientTransform="matrix(34.1317 43.2491 -91.8862 72.5155 7.61524 19.6055)" gradientUnits="userSpaceOnUse">
<stop offset="0.163111" stop-color="#BF4DF3"/>
<stop offset="0.982239" stop-color="#BF4DF3" stop-opacity="0"/>
</radialGradient>
</defs>
</svg>
